<svg xmlns="http://www.w3.org/2000/svg" width="1331" height="477" fill="none" viewBox="0 0 1331 477">
  <mask id="a" fill="#fff">
    <path d="M884.5 394.5c12.2-10.8 24.8-21.2 37.9-31 1.6-2.1 3.7-3.8 6.1-5 6-6.4 12.8-11.5 20.3-15.5.7-.4 1.4-.8 2.2-1.1 5-2.5 10.3-4.4 16-5.9 20.4-5.5 40.4-12.2 60.6-18.3.6-.1 1.2-.2 1.8-.2.1 0 .1-.1.2-.1l-.1.1c.2 0 .3-.1.5-.1 4.9-2.2 10-3.8 15.3-4.8.1 0 .2-.1.3-.1l-.1.1c.2 0 .3-.1.5-.1 7.1-2.8 14.5-5.1 22-6.7.2-.1.4-.1.6-.2l-.1.1c.1 0 .3-.1.4-.1 4.9-2.2 10.1-3.8 15.3-4.8.1 0 .2-.1.3-.1l-.1.1c.1 0 .2 0 .3-.1 14.2-5.4 28.9-9.3 43.4-13.8 43.5-13.5 87.1-26.8 130.7-40.2 19.5-6 39-12.3 58.6-17.9 6.8-2 10.8-5.7 12.9-12.1v-.8c-1.1-1.8-.7-3.8-.7-5.8v-187c0-2-.5-4 .7-5.8V17l-3.4-7.2-1.6-1.7c-4.3-2.9-8.7-2.6-13.4-1-44.2 14.8-88.3 29.5-132.5 44.3-47.8 15.9-95.6 31.8-143.5 47.6-19.4 6.4-38.7 13-58.1 19.4-.4.1-.7.2-1.1.2-.4.1-.7.3-1.1.4l.1-.1c-.7.2-1.3.3-2 .5-8.8 3.9-18.2 6.2-27.2 9.4-3.7 1.3-5.8-2.8-8.2-5.1-2.3-1.2-4.4-2.9-6.2-4.8-.2-.2-.4-.4-.6-.5l-.3-.3v.1c-1.9-1.2-3.8-2.4-5-4.4-3-1.5-7.1-3.6-7-6.2.1-3 5-2.8 7.8-3.8 6.4-2.2 12.6-5.1 19.3-6.3 11.1-5 22.7-8.1 34.1-12.2 15.6-5.6 31.4-10.8 47-16.2.9-.3 1.9-.5 2.9-.6 14.8-5.9 30-10.7 45-15.8 8.3-2.8 16.4-6.4 25-8.2-.3.3-.7.5-1 .7.4-.2.9-.3 1.3-.5l-.1.1c.2-.1.3-.1.5-.2-.2 0-.5 0-.7-.1 12.8-5.5 26.2-9.2 39.3-14.1 9.6-3.6 19.7-5.7 28.7-11 2-3.6 2.7-7.8 2-11.8.1.1.2.2.3.2v-.1c-.1-.3-.2-.5-.3-.8 0 .2.1.4.1.7-5.3-7-8.7-7.9-17.1-5-15.8 5.4-31.7 10.6-47.5 15.9-1 .4-2 .8-3 1.3l.1-.1c-.5.1-.9.2-1.3.3-12.5 5.2-25.5 9.1-38.2 13.5-9.7 3.4-19.3 7.2-29.3 9.8-.4.2-.8.3-1.2.4l.1-.1-.9.3c-3.9 2.2-8.2 3.1-12.4 4.3-.2.1-.5.3-.7.4l.1-.1c-.6.2-1.3.4-1.9.6-10.4 4.1-20.9 7.7-31.6 10.8l-1.5.6.1-.1c-.2 0-.5.1-.7.1-12.2 5.2-24.9 8.8-37.4 13.2-14.8 5.1-29.6 10-44.4 15l-1.5.6h.1c-.4.2-.7.3-1 .3-2.1.8-3.1-.9-4.3-2.4-4.4-2.9-8.5-6.3-12.3-10h.1l-.7-.6-.3-.3c.1.1.1.2.2.3-3.6-2.5-7.2-4.9-10-8.4v.1c-3-1-3.3-2.6-.3-3.7 8.7-3.1 17.6-5.8 26.4-8.6h-.1c11.5-4.6 23.2-8.6 35-12.1v.1c9.7-4.4 20-7.1 30-10.7 10.8-3.9 21.7-7.4 32.5-11.3 7-2.6 9.8-8.3 7.6-14.5-2-5.6-8.5-8.2-15-5.9-18.2 6.3-36.5 12.5-54.7 18.8-26.6 9.1-53.1 18.3-79.7 27.4-.7.2-1.5.3-2.2.4-.1 0-.1.1-.2.1l.1-.1-.6.3c-2.7 1.6-4.2-.4-5.7-2.3-4.6-2.6-8.3-6.5-12.5-9.6-2.1-1.6-1.9-2.8.7-3.6 6.3-1.9 12.3-4.7 18.8-6-.1.1-.1.1-.2.1.1 0 .2-.1.3-.1h-.1c5.6-3.3 12.5-3.8 18-7.4l-.3.3.3-.3.6-.6s0-.1.1-.1c-.1 0-.1 0-.1.1 3.9-7.1 3.6-10.4-1.6-16.8-4.3-1.7-9.1-1.7-13.4 0-13.9 5-27.9 9.4-41.7 14.4-3.7 1.3-6 .7-7.9-2.4.1 0 .1.1.2.1l-.1-.1-.1-.1v.1c-2-.9-3.9-2.3-5.3-4h.1l-.7-.6c0-.1-.1-.1-.1-.2 0 .1 0 .1.1.2-1.6-1.1-3.2-2.3-4.7-3.6-4-4-8.8-4.6-14-3.8 0 0-.1 0-.1.1h-.1c-.2.1-.4.1-.6.2-13.6 5.1-27.7 8.8-41.6 13.2-25.2 7.9-50.4 15.5-75.6 23.4-2 .7-4.2.7-6.2 0-33.5-10.8-67-21.6-100.5-32.3-4.2-1.3-8.6-2.3-12.5-4.3h-.1c-6-1.2-10.9.5-15.5 4.6-4.2 3.7-8.3 7.6-13.2 10.3 0 0-.1 0-.1.1-.1 0-.1.1-.2.1-6.4 6.1-13.3 11.7-20.6 16.8l-.2.2h.1c-.3.2-.5.4-.7.6-7.8 7.1-16.1 13.7-24.7 19.8-.2.2-.5.4-.7.6l.1-.1c-.1 0-.1.1-.2.1-4.4 4.5-9.4 8.5-14.7 11.9-.1 0-.1.1-.2.1l-1 .8c-4.6 4.6-9.6 8.7-15 12.2-7.6 6.2-14.9 12.7-22.6 18.7-11.4 9-22.3 18.8-34.2 27.2h-.1c-3.9 5.4-9.9 7-15.7 8.9-29.9 9.6-59.7 19.2-89.6 28.8-.6.1-1.3.2-1.9.3l-.9.3c-17.4 5.7-34.9 11.5-52.3 17.2-7.1 2.3-14.2 5-21.5 6.6-.1 0-.2.1-.3.1l.1-.1h-.1c-.1 0-.3.1-.4.1-13.5 5.3-27.5 9.1-41.3 13.7-3.7 1.2-7.2 3.2-11.2 3.2h-.1.1c-.1 0-.2.1-.4.1-11.8 4.6-24 8.5-36.2 11.7-.1 0-.3.1-.4.1l.1-.1h-.1c-10.1 4-20.4 7.3-30.9 10h-.1c-7.1 3-14.4 5.4-22 7h-.1c-10.5 4.5-21.6 7.1-32.3 10.9-7 2.5-14.4 3.8-20.6 8.2l-.1.1c.1.2.1.5 0 .8.2 1.5-.2 2.6-1.8 3.1v.1c-.1 1.2-.1 2.3-.1 3.5v199.1c7.7 8.3 9.8 8.5 21.4 4.5 30.6-10.6 61.3-20.9 92-31.3.5-.1 1-.1 1.5-.1h.1-.1c.1 0 .3-.1.4-.1 15.6-6.2 31.6-11 47.5-16.5 23.5-8.1 47.1-16 70.7-24 .7-.2 1.5-.3 2.2-.4.1 0 .1 0 .2-.1l-.1.1c.1 0 .3-.1.4-.1 16.2-6.5 33-11.5 49.4-17.2 28.3-9.8 56.6-19.2 84.9-29 3.9-1.3 7-1.6 9.3 2.2l.1.1.1.1c6.1 4.6 12.3 9.2 17.5 14.9.1 0 .1.1.2.1l1.9 1.8.1.1c1.4.1 2.7.6 2.6 2.3-.1 1.3-1.5 1.5-2.6 1.9-20.2 6.9-40.4 13.8-60.6 20.8-6.4 2.2-12.9 4.2-19.3 6.3 0 0 .1 0 .1-.1-12.8 5.4-26.2 9.4-39.4 13.9-10.2 3.5-20.2 7.6-30.7 10.1.1-.1.3-.2.4-.3-.2.1-.3.1-.5.2l.1-.1c-.2.1-.5.2-.7.2.3 0 .6-.1.9-.1-10.7 4.9-22 8-33.1 11.9-5.3 1.9-10.4 4.2-16 5.1.1-.1.3-.2.4-.3-.2.1-.3.1-.5.2h.1c-.1 0-.1 0-.2.1h.3c-11.4 4.7-23.2 8.7-35.1 12.1l-4.1 1.9s-.1 0-.1.1h.1a8.73 8.73 0 0 1-6 2c-9.4 4.6-10.7 10.9-3.9 19.8l1 .1c4 1.2 7.9-.1 11.9.1 9.2-2.9 18.1-6.8 27.5-9.1.1 0 .2-.1.3-.1l-.1.1h.1c.3-.1.5-.2.8-.2 11.5-4.1 23-8.3 34.5-12.3 6.3-2.2 12.7-4.1 19-6.2.2-.1.4-.2.7-.3l-.1.1c.1 0 .2 0 .3-.1 11.2-4.5 22.7-8.5 34.3-11.9.1-.1.3-.1.4-.2l-.1.1h.1c.2 0 .3-.1.5-.1 11-4.4 22.2-8.3 33.5-11.5.3-.1.6-.2.9-.4l-.1.1c.2 0 .3-.1.5-.1 10.2-4.6 20.9-7.5 31.4-11.2 16.4-5.8 32.9-11.4 49.4-17.1l2.7-.6s.1 0 .1-.1l-.1.1h.1c.1 0 .2 0 .2-.1 6.1-2.9 12.6-4.6 18.9-6.9 2.1-.8 3.8-.2 5.5 1.3 6.4 5.5 13 11 19.5 16.4 2.4 2 3.1 3.2-.8 4.5-31 10.6-61.9 21.3-92.9 32-14.8 5.1-29.5 10.1-44.3 15.2v-.1c-7 8.1-6.3 13.6 2.6 19.8.6.5 1 1.2 1.4 1.9h4.4s.1 0 .1-.1c.3-.9 1-1.7 1.9-2 16.6-5.4 32.8-11.8 49.5-16.6.3-.1.5-.2.8-.3l-.1.1c.4-.3.9-.4 1.3-.5 12-5.1 24.4-8.7 36.7-13 19.6-6.9 39.2-13.4 58.8-20.3 2.6-.9 4.2-.7 6.2 1.1 4.3 3.9 8.8 7.6 13.4 11.2 2.3 1.8 3 3.2-.6 4.2-2.9.8-5.7 1.7-8.6 2.5-11.1 4.8-22.6 8.1-34 12.1-7.2 8.2-6.4 13.9 2.6 19.9.6.5 1.1 1.2 1.5 1.9h4.4c.4-1.5 1.6-2 2.9-2.5 17.2-5.9 34.4-11.7 51.6-17.7 2.1-.7 3.8-1.2 5 1.2 0 0 .1 0 .1.1 0 0 0-.1-.1-.1 2.5 1 4.5 2.9 5.9 5.2-.1 0-.1 0-.2-.1l.1.1 1 .9.1.1-.1-.1c2.7.3 4.2 2.6 6 4.2 4.3 3.8 8.9 4.6 14.3 2.9 19.2-6.1 38.3-12 57.5-18 2.7-.8 5.4-1.4 8.1-2.2l4-1.8c2-1.6 4.5-2.3 7-2v-.1l4.9-1.2v.1c12.5-5 25.6-8.2 38.4-12.5.9-.4 2-.2 2.7.4 12.8 3.4 25.5 7.4 38 12 18.2 5.1 36.2 10.8 54 17.1h-.2c.1 0 .2 0 .2.1h.1c0-.1-.1-.1-.1-.2 7.9 2.4 15.9 4.9 23.9 7.1 3.3 1 6.8 1.7 10.2 2 3.9.3 6.7-2.5 9.8-4.5-.1.2-.2.3-.3.5.1-.1.2-.2.3-.4l.8-.6c.1 0 .2-.1.4-.2h-.3c1.6-1.6 3-3.4 5.2-4 1.5-2.1 3.6-3.8 6-4.9 8.5-7.9 17.6-15.3 27-22.1 3.2-3.7 7.2-6.4 11-9.3-.1.1-.1.2-.2.3 0-.1.1-.1.1-.2l.7-.7c.1-.1.2-.1.4-.2h-.3c1.5-1.7 3.3-3.1 5.3-4 8.5-7.9 17.5-15.3 27-22.1 1.7-1.9 3.7-3.6 6.1-4.8-.1 0-.1.1-.2.2.1 0 .2-.1.2-.2 0 .1 0 .1 0 0Zm370.2-340.9c0-3.3 1.3-4.8 4.2-5.7 14.7-4.8 29.4-9.5 44-14.5 4-1.4 4.9-.4 4.9 3.5-.1 28-.1 55.9-.1 83.9 0 27.1-.1 54.3.1 81.4 0 4.6-1 7-5.9 8.4-14.2 3.9-28.3 8.4-42.4 13-4 1.3-4.8.3-4.8-3.6.1-55.5.1-111 0-166.4Zm-40.9 9.4c.7-.1 1.3-.3 1.9-.5 8.5-2.8 8.5-2.8 8.5 6v78.4c0 26.6-.1 53.3.1 79.9 0 5.2-1 8.3-6.5 9-1.8.3-3.6.8-5.2 1.6-2.2.8-3.1 0-3.1-2.3V114.2c0-15 0-30-.4-44.9-.1-3.9 1.3-5.6 4.7-6.3Zm-32.6 10.9c13.8-4.2 11.2-5.6 11.2 7.4.1 52.5.1 105 0 157.5 0 2.1.9 4.7-1.8 5.7-3.5 1.4-7.1 3.2-11 3-2-.1-1.2-2.8-1.2-4.3v-82h-.3c0-27.5.1-55-.1-82.5.1-2.7.8-4.1 3.2-4.8Zm-28.5 9.4c8.8-2.4 8.7-2.7 8.7 6.5v77.9c0 26.8-.1 53.6.1 80.4 0 4.4-1.5 6.1-5.4 7.2-9.4 2.7-9.4 2.8-9.4-7.1-.1-52.1-.2-104.2-.5-156.3.1-5.1 1.7-7.2 6.5-8.6Zm-189.1 63.3c16.4-5.6 32.7-11.2 49.1-16.7 26.9-9 54-17.7 80.9-26.8 4.1-1.4 5.2-.8 5.2 3.6-.1 53.9-.1 107.9 0 161.9 0 3.2-1 4.8-4.1 5.7-38.7 11.8-77.3 23.6-115.9 35.4-7.2 3.4-15.2 4.8-22.7 7.5-2.6 1-4.2.1-4.2-3V159.4c0-10.2 1.2-11.6 11.7-12.8ZM68.7 425.8c-14.1 4.6-28.1 9.3-42.1 14.2-3.8 1.3-4.9.6-4.9-3.5.1-54.3.1-108.6 0-162.9 0-3.6 1.2-5.1 4.8-6.1 14.2-4.2 28.3-8.8 42.2-13.6 4.1-1.4 4.7-.5 4.7 3.4-.1 27.1-.1 54.3-.1 81.4 0 26.6-.1 53.3.1 80 .1 3.8-.8 5.9-4.7 7.1Zm46.6-16.4c-3.6 1.7-7.4 3-11.3 3.8-1.8.3-1.2-2.3-1.3-3.7-.1-8.8-.3-17.6-.3-26.5 0-44.3.1-88.6-.2-132.8 0-5.7 1.6-8.3 7-9.7 7.6-2 7.5-2.3 7.5 5.7v157.3c.1 2.1 1.1 4.8-1.4 5.9Zm27-8.6c-8.5 2.3-8.5 4.3-8.5-6.2.1-25.5 0-50.9 0-76.4h-.3c0-26.5.1-52.9-.1-79.4-.1-4.8 1.5-6.7 5.9-7.9 9.3-2.6 9.2-2.9 9.2 6.9 0 51.4-.1 102.9.1 154.3 0 5.1-1.4 7.3-6.3 8.7Zm30.9-10.6c-2.5.4-4.6 3-7.4 1.4v.1c-1.5-1.4-.8-3.1-.8-4.7l-.3-158.9c0-2.9-.9-6.5 4.1-6.2 11.1-3.5 11.1-3.5 11.1 8.1 0 50.4-.1 100.8.2 151.1-.1 5.5-1.8 8.3-6.9 9.1ZM731.7 41.1c12.7-3.9 25.4-7.6 38-11.7 3.9-1.3 5-.3 4.9 3.7-.2 13.1-.1 26.3 0 39.4 0 3.5-.5 4.8-4.5 3.4-22.4-7.4-44.9-14.4-67.3-21.6-1.7-.5-3.6-.6-4.9-2.7 11.4-3.6 22.6-7 33.8-10.5Zm-326.9 94.3c29.5-23.9 59-47.7 88.6-71.6C508.2 51.9 523 40 537.6 28c2.5-2.1 4.5-2.3 7.6-1.3 44.8 14.4 89.6 28.8 134.4 43 0 0 .1 0 .1.1l-.1-.1c3.2.4 6.4.7 9 3 27.6 8.8 55.1 17.5 82.7 26.2 3.5 1.1 3.3 3.6 3.3 6.3v154.5c0 5.5-.1 5.5-5.2 3.8-51.5-17.5-103-34.9-154.4-52.3-50.5-17.1-101.1-34.3-151.6-51.6-19.2-6.5-38.4-13.1-57.6-19.6-1.2-.4-2.9-.1-3.1-1.9-.1-1.4 1.2-2 2.1-2.7Zm-20.6 183.3L251 363.9c-6 2-12 4-17.9 6.1-2.6.9-3.8.2-3.7-2.6v-3c0-52.1.1-104.3-.1-156.4 0-4.8 1.7-6.6 5.9-8 46.6-14.9 93.1-29.8 139.6-44.9 2.5-.9 5.2-.9 7.7 0 40 13.6 79.9 27.2 119.9 40.8 39 13.2 78.1 26.5 117.1 39.7 1.3.6 2.5 1.2 3.8 1.9-13.5 4.6-25.7 8.8-37.9 13-37.6 12.8-75.3 25.5-112.9 38.2-29.4 10-58.8 20-88.3 30Zm390.4 122.8c0 3.3-.4 5-4.5 3.7-24-7.7-48.1-15.2-72.2-22.8-.2-.1-.3-.5-1.1-1.6 8.5-2.7 16.5-5.3 24.5-7.9 15.9-5 31.7-9.9 47.6-14.8 5.5-1.7 5.7-1.6 5.7 3.9v39.5Zm0-110.4c0 12.7-.1 25.3.1 38 0 3.2-.9 4.7-4 5.7-59.1 18.3-118.1 36.7-177.1 55.1-18.7 5.8-37.4 11.7-56.1 17.7-2.2.9-4.7.3-6.3-1.3-25.7-21.6-51.5-43.3-77.3-64.9-16.7-14-33.4-28.1-50.2-41.9-3.4-2.8-2.6-3.6.9-4.8 42.5-14.4 85-28.7 127.5-43.2 39.5-13.4 79.1-26.6 118.4-40.5 7.6-2.7 13.5-.4 20 1.8 33.1 11.2 66.1 22.5 99.2 33.6 3.7 1.2 5.1 3.1 5 7.1-.3 12.6-.1 25.1-.1 37.6Zm26.2 103c-1 .9-1.9 2.9-3.6 2-1.7-.9-.7-2.7-.7-4.1V40.5c0-.8-.4-2.1.8-2.6 1.2-.5 1.8.6 2.5 1.2 7 5.7 14 11.3 20.9 17 35.4 29 70.9 58 106.4 87 2.5 1.9 4 4.9 3.8 8.1-.1 26 0 52-.1 78-.1 30.2-.3 60.3-.3 90.5 0 5.9-1.7 10.1-6.5 14.1-41.3 33.2-82.2 66.8-123.2 100.3Z"/>
  </mask>
  <path fill="#685CF0" d="M884.5 394.5c12.2-10.8 24.8-21.2 37.9-31 1.6-2.1 3.7-3.8 6.1-5 6-6.4 12.8-11.5 20.3-15.5.7-.4 1.4-.8 2.2-1.1 5-2.5 10.3-4.4 16-5.9 20.4-5.5 40.4-12.2 60.6-18.3.6-.1 1.2-.2 1.8-.2.1 0 .1-.1.2-.1l-.1.1c.2 0 .3-.1.5-.1 4.9-2.2 10-3.8 15.3-4.8.1 0 .2-.1.3-.1l-.1.1c.2 0 .3-.1.5-.1 7.1-2.8 14.5-5.1 22-6.7.2-.1.4-.1.6-.2l-.1.1c.1 0 .3-.1.4-.1 4.9-2.2 10.1-3.8 15.3-4.8.1 0 .2-.1.3-.1l-.1.1c.1 0 .2 0 .3-.1 14.2-5.4 28.9-9.3 43.4-13.8 43.5-13.5 87.1-26.8 130.7-40.2 19.5-6 39-12.3 58.6-17.9 6.8-2 10.8-5.7 12.9-12.1v-.8c-1.1-1.8-.7-3.8-.7-5.8v-187c0-2-.5-4 .7-5.8V17l-3.4-7.2-1.6-1.7c-4.3-2.9-8.7-2.6-13.4-1-44.2 14.8-88.3 29.5-132.5 44.3-47.8 15.9-95.6 31.8-143.5 47.6-19.4 6.4-38.7 13-58.1 19.4-.4.1-.7.2-1.1.2-.4.1-.7.3-1.1.4l.1-.1c-.7.2-1.3.3-2 .5-8.8 3.9-18.2 6.2-27.2 9.4-3.7 1.3-5.8-2.8-8.2-5.1-2.3-1.2-4.4-2.9-6.2-4.8-.2-.2-.4-.4-.6-.5l-.3-.3v.1c-1.9-1.2-3.8-2.4-5-4.4-3-1.5-7.1-3.6-7-6.2.1-3 5-2.8 7.8-3.8 6.4-2.2 12.6-5.1 19.3-6.3 11.1-5 22.7-8.1 34.1-12.2 15.6-5.6 31.4-10.8 47-16.2.9-.3 1.9-.5 2.9-.6 14.8-5.9 30-10.7 45-15.8 8.3-2.8 16.4-6.4 25-8.2-.3.3-.7.5-1 .7.4-.2.9-.3 1.3-.5l-.1.1c.2-.1.3-.1.5-.2-.2 0-.5 0-.7-.1 12.8-5.5 26.2-9.2 39.3-14.1 9.6-3.6 19.7-5.7 28.7-11 2-3.6 2.7-7.8 2-11.8.1.1.2.2.3.2v-.1c-.1-.3-.2-.5-.3-.8 0 .2.1.4.1.7-5.3-7-8.7-7.9-17.1-5-15.8 5.4-31.7 10.6-47.5 15.9-1 .4-2 .8-3 1.3l.1-.1c-.5.1-.9.2-1.3.3-12.5 5.2-25.5 9.1-38.2 13.5-9.7 3.4-19.3 7.2-29.3 9.8-.4.2-.8.3-1.2.4l.1-.1-.9.3c-3.9 2.2-8.2 3.1-12.4 4.3-.2.1-.5.3-.7.4l.1-.1c-.6.2-1.3.4-1.9.6-10.4 4.1-20.9 7.7-31.6 10.8l-1.5.6.1-.1c-.2 0-.5.1-.7.1-12.2 5.2-24.9 8.8-37.4 13.2-14.8 5.1-29.6 10-44.4 15l-1.5.6h.1c-.4.2-.7.3-1 .3-2.1.8-3.1-.9-4.3-2.4-4.4-2.9-8.5-6.3-12.3-10h.1l-.7-.6-.3-.3c.1.1.1.2.2.3-3.6-2.5-7.2-4.9-10-8.4v.1c-3-1-3.3-2.6-.3-3.7 8.7-3.1 17.6-5.8 26.4-8.6h-.1c11.5-4.6 23.2-8.6 35-12.1v.1c9.7-4.4 20-7.1 30-10.7 10.8-3.9 21.7-7.4 32.5-11.3 7-2.6 9.8-8.3 7.6-14.5-2-5.6-8.5-8.2-15-5.9-18.2 6.3-36.5 12.5-54.7 18.8-26.6 9.1-53.1 18.3-79.7 27.4-.7.2-1.5.3-2.2.4-.1 0-.1.1-.2.1l.1-.1-.6.3c-2.7 1.6-4.2-.4-5.7-2.3-4.6-2.6-8.3-6.5-12.5-9.6-2.1-1.6-1.9-2.8.7-3.6 6.3-1.9 12.3-4.7 18.8-6-.1.1-.1.1-.2.1.1 0 .2-.1.3-.1h-.1c5.6-3.3 12.5-3.8 18-7.4l-.3.3.3-.3.6-.6s0-.1.1-.1c-.1 0-.1 0-.1.1 3.9-7.1 3.6-10.4-1.6-16.8-4.3-1.7-9.1-1.7-13.4 0-13.9 5-27.9 9.4-41.7 14.4-3.7 1.3-6 .7-7.9-2.4.1 0 .1.1.2.1l-.1-.1-.1-.1v.1c-2-.9-3.9-2.3-5.3-4h.1l-.7-.6c0-.1-.1-.1-.1-.2 0 .1 0 .1.1.2-1.6-1.1-3.2-2.3-4.7-3.6-4-4-8.8-4.6-14-3.8 0 0-.1 0-.1.1h-.1c-.2.1-.4.1-.6.2-13.6 5.1-27.7 8.8-41.6 13.2-25.2 7.9-50.4 15.5-75.6 23.4-2 .7-4.2.7-6.2 0-33.5-10.8-67-21.6-100.5-32.3-4.2-1.3-8.6-2.3-12.5-4.3h-.1c-6-1.2-10.9.5-15.5 4.6-4.2 3.7-8.3 7.6-13.2 10.3 0 0-.1 0-.1.1-.1 0-.1.1-.2.1-6.4 6.1-13.3 11.7-20.6 16.8l-.2.2h.1c-.3.2-.5.4-.7.6-7.8 7.1-16.1 13.7-24.7 19.8-.2.2-.5.4-.7.6l.1-.1c-.1 0-.1.1-.2.1-4.4 4.5-9.4 8.5-14.7 11.9-.1 0-.1.1-.2.1l-1 .8c-4.6 4.6-9.6 8.7-15 12.2-7.6 6.2-14.9 12.7-22.6 18.7-11.4 9-22.3 18.8-34.2 27.2h-.1c-3.9 5.4-9.9 7-15.7 8.9-29.9 9.6-59.7 19.2-89.6 28.8-.6.1-1.3.2-1.9.3l-.9.3c-17.4 5.7-34.9 11.5-52.3 17.2-7.1 2.3-14.2 5-21.5 6.6-.1 0-.2.1-.3.1l.1-.1h-.1c-.1 0-.3.1-.4.1-13.5 5.3-27.5 9.1-41.3 13.7-3.7 1.2-7.2 3.2-11.2 3.2h-.1.1c-.1 0-.2.1-.4.1-11.8 4.6-24 8.5-36.2 11.7-.1 0-.3.1-.4.1l.1-.1h-.1c-10.1 4-20.4 7.3-30.9 10h-.1c-7.1 3-14.4 5.4-22 7h-.1c-10.5 4.5-21.6 7.1-32.3 10.9-7 2.5-14.4 3.8-20.6 8.2l-.1.1c.1.2.1.5 0 .8.2 1.5-.2 2.6-1.8 3.1v.1c-.1 1.2-.1 2.3-.1 3.5v199.1c7.7 8.3 9.8 8.5 21.4 4.5 30.6-10.6 61.3-20.9 92-31.3.5-.1 1-.1 1.5-.1h.1-.1c.1 0 .3-.1.4-.1 15.6-6.2 31.6-11 47.5-16.5 23.5-8.1 47.1-16 70.7-24 .7-.2 1.5-.3 2.2-.4.1 0 .1 0 .2-.1l-.1.1c.1 0 .3-.1.4-.1 16.2-6.5 33-11.5 49.4-17.2 28.3-9.8 56.6-19.2 84.9-29 3.9-1.3 7-1.6 9.3 2.2l.1.1.1.1c6.1 4.6 12.3 9.2 17.5 14.9.1 0 .1.1.2.1l1.9 1.8.1.1c1.4.1 2.7.6 2.6 2.3-.1 1.3-1.5 1.5-2.6 1.9-20.2 6.9-40.4 13.8-60.6 20.8-6.4 2.2-12.9 4.2-19.3 6.3 0 0 .1 0 .1-.1-12.8 5.4-26.2 9.4-39.4 13.9-10.2 3.5-20.2 7.6-30.7 10.1.1-.1.3-.2.4-.3-.2.1-.3.1-.5.2l.1-.1c-.2.1-.5.2-.7.2.3 0 .6-.1.9-.1-10.7 4.9-22 8-33.1 11.9-5.3 1.9-10.4 4.2-16 5.1.1-.1.3-.2.4-.3-.2.1-.3.1-.5.2h.1c-.1 0-.1 0-.2.1h.3c-11.4 4.7-23.2 8.7-35.1 12.1l-4.1 1.9s-.1 0-.1.1h.1a8.73 8.73 0 0 1-6 2c-9.4 4.6-10.7 10.9-3.9 19.8l1 .1c4 1.2 7.9-.1 11.9.1 9.2-2.9 18.1-6.8 27.5-9.1.1 0 .2-.1.3-.1l-.1.1h.1c.3-.1.5-.2.8-.2 11.5-4.1 23-8.3 34.5-12.3 6.3-2.2 12.7-4.1 19-6.2.2-.1.4-.2.7-.3l-.1.1c.1 0 .2 0 .3-.1 11.2-4.5 22.7-8.5 34.3-11.9.1-.1.3-.1.4-.2l-.1.1h.1c.2 0 .3-.1.5-.1 11-4.4 22.2-8.3 33.5-11.5.3-.1.6-.2.9-.4l-.1.1c.2 0 .3-.1.5-.1 10.2-4.6 20.9-7.5 31.4-11.2 16.4-5.8 32.9-11.4 49.4-17.1l2.7-.6s.1 0 .1-.1l-.1.1h.1c.1 0 .2 0 .2-.1 6.1-2.9 12.6-4.6 18.9-6.9 2.1-.8 3.8-.2 5.5 1.3 6.4 5.5 13 11 19.5 16.4 2.4 2 3.1 3.2-.8 4.5-31 10.6-61.9 21.3-92.9 32-14.8 5.1-29.5 10.1-44.3 15.2v-.1c-7 8.1-6.3 13.6 2.6 19.8.6.5 1 1.2 1.4 1.9h4.4s.1 0 .1-.1c.3-.9 1-1.7 1.9-2 16.6-5.4 32.8-11.8 49.5-16.6.3-.1.5-.2.8-.3l-.1.1c.4-.3.9-.4 1.3-.5 12-5.1 24.4-8.7 36.7-13 19.6-6.9 39.2-13.4 58.8-20.3 2.6-.9 4.2-.7 6.2 1.1 4.3 3.9 8.8 7.6 13.4 11.2 2.3 1.8 3 3.2-.6 4.2-2.9.8-5.7 1.7-8.6 2.5-11.1 4.8-22.6 8.1-34 12.1-7.2 8.2-6.4 13.9 2.6 19.9.6.5 1.1 1.2 1.5 1.9h4.4c.4-1.5 1.6-2 2.9-2.5 17.2-5.9 34.4-11.7 51.6-17.7 2.1-.7 3.8-1.2 5 1.2 0 0 .1 0 .1.1 0 0 0-.1-.1-.1 2.5 1 4.5 2.9 5.9 5.2-.1 0-.1 0-.2-.1l.1.1 1 .9.1.1-.1-.1c2.7.3 4.2 2.6 6 4.2 4.3 3.8 8.9 4.6 14.3 2.9 19.2-6.1 38.3-12 57.5-18 2.7-.8 5.4-1.4 8.1-2.2l4-1.8c2-1.6 4.5-2.3 7-2v-.1l4.9-1.2v.1c12.5-5 25.6-8.2 38.4-12.5.9-.4 2-.2 2.7.4 12.8 3.4 25.5 7.4 38 12 18.2 5.1 36.2 10.8 54 17.1h-.2c.1 0 .2 0 .2.1h.1c0-.1-.1-.1-.1-.2 7.9 2.4 15.9 4.9 23.9 7.1 3.3 1 6.8 1.7 10.2 2 3.9.3 6.7-2.5 9.8-4.5-.1.2-.2.3-.3.5.1-.1.2-.2.3-.4l.8-.6c.1 0 .2-.1.4-.2h-.3c1.6-1.6 3-3.4 5.2-4 1.5-2.1 3.6-3.8 6-4.9 8.5-7.9 17.6-15.3 27-22.1 3.2-3.7 7.2-6.4 11-9.3-.1.1-.1.2-.2.3 0-.1.1-.1.1-.2l.7-.7c.1-.1.2-.1.4-.2h-.3c1.5-1.7 3.3-3.1 5.3-4 8.5-7.9 17.5-15.3 27-22.1 1.7-1.9 3.7-3.6 6.1-4.8-.1 0-.1.1-.2.2.1 0 .2-.1.2-.2 0 .1 0 .1 0 0Zm370.2-340.9c0-3.3 1.3-4.8 4.2-5.7 14.7-4.8 29.4-9.5 44-14.5 4-1.4 4.9-.4 4.9 3.5-.1 28-.1 55.9-.1 83.9 0 27.1-.1 54.3.1 81.4 0 4.6-1 7-5.9 8.4-14.2 3.9-28.3 8.4-42.4 13-4 1.3-4.8.3-4.8-3.6.1-55.5.1-111 0-166.4Zm-40.9 9.4c.7-.1 1.3-.3 1.9-.5 8.5-2.8 8.5-2.8 8.5 6v78.4c0 26.6-.1 53.3.1 79.9 0 5.2-1 8.3-6.5 9-1.8.3-3.6.8-5.2 1.6-2.2.8-3.1 0-3.1-2.3V114.2c0-15 0-30-.4-44.9-.1-3.9 1.3-5.6 4.7-6.3Zm-32.6 10.9c13.8-4.2 11.2-5.6 11.2 7.4.1 52.5.1 105 0 157.5 0 2.1.9 4.7-1.8 5.7-3.5 1.4-7.1 3.2-11 3-2-.1-1.2-2.8-1.2-4.3v-82h-.3c0-27.5.1-55-.1-82.5.1-2.7.8-4.1 3.2-4.8Zm-28.5 9.4c8.8-2.4 8.7-2.7 8.7 6.5v77.9c0 26.8-.1 53.6.1 80.4 0 4.4-1.5 6.1-5.4 7.2-9.4 2.7-9.4 2.8-9.4-7.1-.1-52.1-.2-104.2-.5-156.3.1-5.1 1.7-7.2 6.5-8.6Zm-189.1 63.3c16.4-5.6 32.7-11.2 49.1-16.7 26.9-9 54-17.7 80.9-26.8 4.1-1.4 5.2-.8 5.2 3.6-.1 53.9-.1 107.9 0 161.9 0 3.2-1 4.8-4.1 5.7-38.7 11.8-77.3 23.6-115.9 35.4-7.2 3.4-15.2 4.8-22.7 7.5-2.6 1-4.2.1-4.2-3V159.4c0-10.2 1.2-11.6 11.7-12.8ZM68.7 425.8c-14.1 4.6-28.1 9.3-42.1 14.2-3.8 1.3-4.9.6-4.9-3.5.1-54.3.1-108.6 0-162.9 0-3.6 1.2-5.1 4.8-6.1 14.2-4.2 28.3-8.8 42.2-13.6 4.1-1.4 4.7-.5 4.7 3.4-.1 27.1-.1 54.3-.1 81.4 0 26.6-.1 53.3.1 80 .1 3.8-.8 5.9-4.7 7.1Zm46.6-16.4c-3.6 1.7-7.4 3-11.3 3.8-1.8.3-1.2-2.3-1.3-3.7-.1-8.8-.3-17.6-.3-26.5 0-44.3.1-88.6-.2-132.8 0-5.7 1.6-8.3 7-9.7 7.6-2 7.5-2.3 7.5 5.7v157.3c.1 2.1 1.1 4.8-1.4 5.9Zm27-8.6c-8.5 2.3-8.5 4.3-8.5-6.2.1-25.5 0-50.9 0-76.4h-.3c0-26.5.1-52.9-.1-79.4-.1-4.8 1.5-6.7 5.9-7.9 9.3-2.6 9.2-2.9 9.2 6.9 0 51.4-.1 102.9.1 154.3 0 5.1-1.4 7.3-6.3 8.7Zm30.9-10.6c-2.5.4-4.6 3-7.4 1.4v.1c-1.5-1.4-.8-3.1-.8-4.7l-.3-158.9c0-2.9-.9-6.5 4.1-6.2 11.1-3.5 11.1-3.5 11.1 8.1 0 50.4-.1 100.8.2 151.1-.1 5.5-1.8 8.3-6.9 9.1ZM731.7 41.1c12.7-3.9 25.4-7.6 38-11.7 3.9-1.3 5-.3 4.9 3.7-.2 13.1-.1 26.3 0 39.4 0 3.5-.5 4.8-4.5 3.4-22.4-7.4-44.9-14.4-67.3-21.6-1.7-.5-3.6-.6-4.9-2.7 11.4-3.6 22.6-7 33.8-10.5Zm-326.9 94.3c29.5-23.9 59-47.7 88.6-71.6C508.2 51.9 523 40 537.6 28c2.5-2.1 4.5-2.3 7.6-1.3 44.8 14.4 89.6 28.8 134.4 43 0 0 .1 0 .1.1l-.1-.1c3.2.4 6.4.7 9 3 27.6 8.8 55.1 17.5 82.7 26.2 3.5 1.1 3.3 3.6 3.3 6.3v154.5c0 5.5-.1 5.5-5.2 3.8-51.5-17.5-103-34.9-154.4-52.3-50.5-17.1-101.1-34.3-151.6-51.6-19.2-6.5-38.4-13.1-57.6-19.6-1.2-.4-2.9-.1-3.1-1.9-.1-1.4 1.2-2 2.1-2.7Zm-20.6 183.3L251 363.9c-6 2-12 4-17.9 6.1-2.6.9-3.8.2-3.7-2.6v-3c0-52.1.1-104.3-.1-156.4 0-4.8 1.7-6.6 5.9-8 46.6-14.9 93.1-29.8 139.6-44.9 2.5-.9 5.2-.9 7.7 0 40 13.6 79.9 27.2 119.9 40.8 39 13.2 78.1 26.5 117.1 39.7 1.3.6 2.5 1.2 3.8 1.9-13.5 4.6-25.7 8.8-37.9 13-37.6 12.8-75.3 25.5-112.9 38.2-29.4 10-58.8 20-88.3 30Zm390.4 122.8c0 3.3-.4 5-4.5 3.7-24-7.7-48.1-15.2-72.2-22.8-.2-.1-.3-.5-1.1-1.6 8.5-2.7 16.5-5.3 24.5-7.9 15.9-5 31.7-9.9 47.6-14.8 5.5-1.7 5.7-1.6 5.7 3.9v39.5Zm0-110.4c0 12.7-.1 25.3.1 38 0 3.2-.9 4.7-4 5.7-59.1 18.3-118.1 36.7-177.1 55.1-18.7 5.8-37.4 11.7-56.1 17.7-2.2.9-4.7.3-6.3-1.3-25.7-21.6-51.5-43.3-77.3-64.9-16.7-14-33.4-28.1-50.2-41.9-3.4-2.8-2.6-3.6.9-4.8 42.5-14.4 85-28.7 127.5-43.2 39.5-13.4 79.1-26.6 118.4-40.5 7.6-2.7 13.5-.4 20 1.8 33.1 11.2 66.1 22.5 99.2 33.6 3.7 1.2 5.1 3.1 5 7.1-.3 12.6-.1 25.1-.1 37.6Zm26.2 103c-1 .9-1.9 2.9-3.6 2-1.7-.9-.7-2.7-.7-4.1V40.5c0-.8-.4-2.1.8-2.6 1.2-.5 1.8.6 2.5 1.2 7 5.7 14 11.3 20.9 17 35.4 29 70.9 58 106.4 87 2.5 1.9 4 4.9 3.8 8.1-.1 26 0 52-.1 78-.1 30.2-.3 60.3-.3 90.5 0 5.9-1.7 10.1-6.5 14.1-41.3 33.2-82.2 66.8-123.2 100.3Z"/>
  <path fill="#000" d="m922.4 363.5.599.801.112-.084.084-.111-.795-.606Zm6.1-5 .447.894.16-.08.123-.13-.73-.684Zm20.3-15.5.471.882.013-.007.012-.007-.496-.868Zm2.2-1.1.351.936.049-.018.047-.024-.447-.894Zm16-5.9.255.967.005-.001L967 336Zm60.6-18.3-.16-.986-.07.01-.06.019.29.957Zm2-.3.71.707 1.7-1.707h-2.41v1Zm-.1.1-.71-.707-1.7 1.707h2.41v-1Zm.5-.1v1h.21l.2-.088-.41-.912Zm15.3-4.8v-1h-.09l-.1.017.19.983Zm.3-.1.71.707 1.7-1.707h-2.41v1Zm-.1.1-.71-.707-1.7 1.707h2.41v-1Zm.5-.1v1h.19l.18-.07-.37-.93Zm22-6.7.21.978.12-.027.12-.057-.45-.894Zm.6-.2.71.707-1.16-1.601.45.894Zm-.1.1-.71-.707-1.7 1.707h2.41v-1Zm.4-.1v1h.21l.2-.088-.41-.912Zm15.3-4.8v-1h-.1l-.09.018.19.982Zm.3-.1.71.707 1.7-1.707h-2.41v1Zm-.1.1-.71-.707-1.7 1.707h2.41v-1Zm.3-.1-.36-.935-.2.076-.15.152.71.707Zm174.1-54 .29.956-.29-.956Zm58.6-17.9.27.962.01-.003-.28-.959Zm12.9-12.1.95.312.05-.152v-.16h-1Zm0-.8h1v-.281l-.15-.24-.85.521Zm0-198.6.83.555.17-.252V17.3h-1Zm0-.3h1v-.224l-.1-.203-.9.427Zm-3.4-7.2.9-.427-.06-.143-.11-.115-.73.685Zm-1.6-1.7.73-.685-.08-.082-.09-.062-.56.829Zm-13.4-1 .32.948v-.001l-.32-.947Zm-132.5 44.3.32.949-.32-.949ZM1035.9 99l-.31-.95.31.95Zm-58.1 19.4.243.97.035-.009.035-.011-.313-.95Zm-1.1.2v-1h-.123l-.12.03.243.97Zm-1.1.4-.707-.707-2.552 2.553 3.502-.876-.243-.97Zm.1-.1.707.707 2.728-2.728-3.71 1.059.275.962Zm-2 .5-.275-.962-.067.02-.063.028.405.914Zm-27.2 9.4.331.943.004-.001-.335-.942Zm-8.2-5.1.692-.722-.103-.099-.126-.066-.463.887Zm-6.2-4.8.726-.688-.009-.01-.01-.009-.707.707Zm-.6-.5-.707.707.115.115.145.072.447-.894Zm-.3-.3.707-.707-1.707-1.707v2.414h1Zm0 .1-.534.845 1.534.969V118.2h-1Zm-5-4.4.857-.515-.149-.249-.261-.13-.447.894Zm-7-6.2.999.038v-.005l-.999-.033Zm7.8-3.8-.325-.946-.011.004.336.942Zm19.3-6.3.176.984.122-.021.113-.051-.411-.912Zm34.1-12.2-.338-.941.338.941Zm47-16.2-.32-.949-.01.004.33.945Zm2.9-.6.1.995.14-.014.13-.052-.37-.929Zm45-15.8-.32-.948v.001l.32.947Zm25-8.2.71.707 2.37-2.373-3.28.687.2.979Zm-1 .7-.55-.832 1 1.726-.45-.894Zm1.3-.5.71.707-1.16-1.601.45.894Zm-.1.1-.71-.707 1.16 1.601-.45-.894Zm.5-.2.45.894-.45-1.894v1Zm-.7-.1-.39-.919-1.98.85 1.92.963.45-.894Zm39.3-14.1.35.937-.35-.937Zm28.7-11 .51.862.23-.138.13-.238-.87-.486Zm2-11.8.71-.707-2.24-2.238.55 3.117.98-.172Zm.3.2v1h1v-1h-1Zm0-.1h1v-.162l-.05-.154-.95.316Zm-.3-.8.95-.316-1.95.316h1Zm.1.7-.8.604 1.8 2.373V7.6h-1Zm-17.1-5 .32.946h.01l-.33-.946Zm-47.5 15.9-.32-.948-.02.009-.03.01.37.929Zm-3 1.3-.71-.707 1.16 1.601-.45-.894Zm.1-.1.71.707 2.33-2.335-3.24.647.2.981Zm-1.3.3-.24-.97-.08.018-.06.029.38.923Zm-38.2 13.5-.33-.945v.001l.33.944Zm-29.3 9.8-.25-.968-.1.027-.1.047.45.894Zm-1.2.4-.71-.707-2.55 2.553 3.5-.876-.24-.97Zm.1-.1.71.707-1.03-1.656.32.949Zm-.9.3-.32-.949-.09.03-.08.048.49.871Zm-12.4 4.3-.27-.962-.09.026-.09.042.45.894Zm-.7.4-.71-.707 1.16 1.601-.45-.894Zm.1-.1.71.707-1.03-1.656.32.949Zm-1.9.6-.32-.949-.02.009-.03.01.37.93Zm-31.6 10.8-.278-.96-.048.013-.045.018.371.929Zm-1.5.6-.707-.707 1.078 1.636-.371-.929Zm.1-.1.707.707 1.707-1.707H984.2v1Zm-.7.1v-1h-.204l-.188.08.392.92Zm-37.4 13.2.326.945.006-.002-.332-.943Zm-44.4 15-.32-.947-.026.008-.025.01.371.929Zm-1.5.6-.371-.928.371 1.928v-1Zm.1 0 .447.894-.447-1.894v1Zm-1 .3v-1h-.184l-.172.066.356.934Zm-4.3-2.4.781-.625-.099-.123-.132-.087-.55.835Zm-12.3-10v-1h-2.46l1.762 1.716.698-.716Zm.1 0v1h2.703l-2.052-1.76-.651.76Zm-.7-.6-.707.707.027.027.029.025.651-.759Zm-.1 0-.57.821 1.277-1.528-.707.707Zm-10-8.4.781-.625L871 65.35v2.85h1Zm0 .1-.316.949 1.316.438V68.3h-1Zm-.3-3.7-.336-.942-.008.003.344.939Zm26.4-8.6v-1h-.155l-.148.047.303.953Zm-.1 0-.371-.928L898 57v-1Zm35-12.1h1v-1.34l-1.284.381.284.959Zm0 .1h-1v1.552l1.413-.641L933 44Zm30-10.7.339.94h.001l-.34-.94ZM995.5 22l.34.94.008-.003L995.5 22Zm7.6-14.5.94-.334v-.002l-.94.336Zm-15-5.9.327.945.007-.002-.334-.943Zm-54.7 18.8.324.946.003-.001-.327-.945Zm-79.7 27.4.275.962.024-.008.025-.008-.324-.946Zm-2.2.4v1h.071l.07-.01-.141-.99Zm-.2.1-.707-.707-1.708 1.707h2.415v-1Zm.1-.1.707.707-1.154-1.601.447.894Zm-.6.3-.447-.894-.032.015-.031.019.51.86Zm-5.7-2.3.785-.62-.122-.154-.171-.097-.492.871Zm-12.5-9.6-.606.795.006.005.006.005.594-.805Zm.7-3.6-.289-.957-.005.001.294.956Zm18.8-6 .707.707 2.336-2.335-3.239.647.196.981Zm0 0-.508-.861L848.433 28h3.667v-1Zm18-7.4.707.707-1.255-1.544.548.837Zm0 0-.707-.707.707.707Zm.6-.6.707.707.293-.293V19h-1Zm0 0h-1l1.876.481L870.7 19Zm-1.6-16.8.776-.63-.165-.204-.243-.096-.368.93Zm-13.4 0 .339.941.014-.005.015-.006-.368-.93ZM814 16.6l.331.944.01-.004-.341-.94Zm-7.9-2.4v-1h-1.786l.933 1.523.853-.523Zm.2.1v1h2.414l-1.707-1.707-.707.707Zm-.1-.1.707-.707-.707.707Zm-.1-.1.707-.707-1.707-1.707V14.1h1Zm0 .1-.41.912 1.41.635V14.2h-1Zm-5.3-4v-1h-2.119l1.347 1.636.772-.636Zm.1 0v1h2.703l-2.052-1.76-.651.76Zm-.7-.6h-1v.46l.349.3.651-.76Zm0 0-.567.824 1.274-1.531-.707.707ZM795.5 6l-.707.707.025.025.027.024L795.5 6Zm-14-3.8v1h.076l.076-.012-.152-.988Zm-.1.1v1h1v-1h-1Zm-.1 0v-1h-.236l-.211.106.447.894Zm-.6.2.351.936.049-.018.047-.024-.447-.894Zm-41.6 13.2.299.954h.003l-.302-.954Zm-75.6 23.4-.299-.954-.016.005-.015.005.33.944Zm-6.2 0 .33-.944-.011-.004-.012-.004-.307.952ZM556.8 6.8l.304-.953-.008-.002-.296.955Zm-12.5-4.3v-1l-.456 1.89.456-.89Zm-.1 0-.196.98.097.02h.099v-1Zm-15.5 4.6.661.75.004-.003-.665-.747Zm-13.2 10.3v1h.257l.226-.124-.483-.876Zm-.1.1v1h1v-1h-1Zm-.2.1v-1h-.4l-.29.276.69.724Zm-20.6 16.8-.573-.82-.072.05-.062.063.707.707Zm-.2.2-.707-.707-1.707 1.707h2.414v-1Zm.1 0 .555.832 2.748-1.832H494.5v1Zm-.7.6.673.74.018-.016.016-.017-.707-.707ZM469.1 55l-.579-.816-.068.05-.06.059.707.707Zm-.7.6-.707-.707 1.414 1.414-.707-.707Zm.1-.1.707.707 1.707-1.707H468.5v1Zm-.2.1v-1h-.421l-.294.3.715.7Zm-14.7 11.9v1h.293l.247-.158-.54-.842Zm-.2.1v-1h-.351l-.274.22.625.78Zm-1 .8-.625-.78-.043.034-.039.039.707.707Zm-15 12.2-.544-.84-.046.03-.042.035.632.775Zm-22.6 18.7-.615-.789-.005.004.62.785Zm-34.2 27.2v1h.317l.26-.183-.577-.817Zm-.1 0v-1h-.511l-.3.415.811.585Zm-15.7 8.9.306.952.005-.002-.311-.95Zm-89.6 28.8.164.986.072-.012.07-.022-.306-.952Zm-1.9.3-.164-.986-.078.012-.074.025.316.949Zm-.9.3.311.95.005-.001-.316-.949ZM220.1 182l.308.951.003-.001-.311-.95Zm-21.5 6.6v1h.108l.106-.023-.214-.977Zm-.3.1-.707-.707-1.707 1.707h2.414v-1Zm.1-.1.707.707 1.707-1.707H198.4v1Zm-.5.1v-1h-.189l-.176.069.365.931Zm-41.3 13.7.309.951.007-.002-.316-.949Zm-11.6 3.3v-1h-.188l-.175.068.363.932Zm-36.2 11.7v1h.129l.125-.033-.254-.967Zm-.4.1-.707-.707-1.707 1.707h2.414v-1Zm.1-.1.707.707 1.707-1.707H108.5v1Zm-.1 0v-1h-.191l-.177.07.368.93Zm-30.9 10v1h.126l.123-.032-.249-.968Zm-.1 0v-1h-.203l-.186.079.389.921Zm-22 7-.206-.979.206 1.979v-1Zm-.1 0v-1h-.205l-.189.081.394.919ZM23 245.3l-.335-.942h-.001l.336.942Zm-20.6 8.2-.579-.816-.557.396.166.663.97-.243Zm-.1.1-.707-.707-.51.51.323.644.894-.447Zm0 .8-.949-.316-.073.219.03.229.992-.132Zm-1.8 3.1-.298-.954-.702.219v.735h1Zm0 .1.997.083.003-.041v-.042h-1ZM.4 460.2h-1v.392l.267.288.733-.68Zm21.4 4.5.326.945h.001l-.327-.945Zm92-31.3-.196-.981-.064.013-.061.021.321.947Zm1.9-.2v1h.191l.178-.071-.369-.929Zm47.5-16.5-.326-.945h-.001l.327.945Zm70.7-24-.275-.962-.023.007-.023.008.321.947Zm2.2-.4v-1h-.071l-.07.01.141.99Zm.1 0-.707-.707-1.707 1.707h2.414v-1Zm.4-.1v1h.193l.179-.072-.372-.928ZM286 375l-.327-.945h-.001L286 375Zm84.9-29-.316-.949-.011.004.327.945Zm9.3 2.2-.855.518.062.103.086.086.707-.707Zm.2.2-.707.707.049.049.056.042.602-.798Zm17.5 14.9-.739.674.298.326h.441v-1Zm.2.1.688-.726-.289-.274h-.399v1Zm1.9 1.8.707-.707-.009-.01-.01-.009-.688.726Zm.1.1-.707.707.264.264.372.026.071-.997Zm2.6 2.3.997.077.001-.009v-.009l-.998-.059Zm-2.6 1.9.323.946.01-.003.009-.003-.342-.94Zm-60.6 20.8.325.946.002-.001-.327-.945Zm-19.3 6.3-.312-.95.312 1.95v-1Zm.1-.1h1v-1.507l-1.389.586.389.921Zm-39.4 13.9-.323-.947-.002.001.325.946Zm-30.7 10.1-.707-.707-2.498 2.498 3.437-.818-.232-.973Zm.4-.3.707.707-1.154-1.601.447.894Zm-.5.2-.707-.707 1.154 1.601-.447-.894Zm.1-.1.707.707-1.154-1.601.447.894Zm.2.1.416.909-.416-1.909v1Zm-33.1 11.9-.331-.943-.006.002.337.941Zm-16 5.1-.707-.707-2.185 2.185 3.051-.491-.159-.987Zm.4-.3.707.707-1.154-1.601.447.894Zm-.5.2-.447-.894.447 1.894v-1Zm-.1.1-.707-.707-1.707 1.707h2.414v-1Zm.3 0 .381.925-.381-1.925v1Zm-35.1 12.1-.275-.962-.075.022-.07.033.42.907Zm-4.1 1.9v1h.22l.2-.093-.42-.907Zm-.1.1h-1v1h1v-1Zm.1 0 .636.772 2.151-1.772H162.2v1Zm-6 2 .045-.999-.255-.012-.23.113.44.898Zm-3.9 19.8-.795.607.264.345.431.043.1-.995Zm1 .1.287-.958-.092-.027-.095-.01-.1.995Zm11.9.1-.05.999.179.009.172-.054-.301-.954Zm27.5-9.1v-1h-.121l-.117.029.238.971Zm.3-.1.707.707 1.707-1.707H193v1Zm-.1.1-.707-.707-1.707 1.707h2.414v-1Zm.1 0v1h.162l.154-.051-.316-.949Zm.8-.2v1h.173l.163-.058-.336-.942Zm34.5-12.3.329.945.001-.001-.33-.944Zm19-6.2.316.949.068-.023.063-.032-.447-.894Zm.7-.3.707.707-1.023-1.656.316.949Zm-.1.1-.707-.707-1.708 1.707h2.415v-1Zm.3-.1-.373-.928-.189.076-.145.145.707.707Zm34.3-11.9.281.96.245-.072.181-.181-.707-.707Zm.4-.2.707.707-1.414-1.414.707.707Zm-.1.1-.707-.707-1.707 1.707h2.414v-1Zm.6-.1v1h.193l.178-.072-.371-.928Zm33.5-11.5.272.962.023-.006.021-.007-.316-.949Zm.9-.4.707.707-1.262-1.539.555.832Zm-.1.1-.707-.707-1.707 1.707h2.414v-1Zm.5-.1v1h.215l.196-.088-.411-.912Zm31.4-11.2.332.943h.001l-.333-.943Zm49.4-17.1-.217-.976-.056.012-.053.019.326.945Zm2.7-.6v-1h-.11l-.107.024.217.976Zm.1-.1h1v-2.415l-1.707 1.708.707.707Zm-.1.1v1h.414l.293-.293-.707-.707Zm.3-.1-.429-.903-.571.271v.632h1Zm18.9-6.9.343.939.013-.005-.356-.934Zm5.5 1.3-.662.75.01.008.652-.758Zm19.5 16.4.64-.768-.001-.001-.639.769Zm-.8 4.5-.316-.949-.008.003.324.946Zm-92.9 32 .326.945-.326-.945Zm-44.3 15.2h-1v1.402l1.326-.457-.326-.945Zm0-.1h1v-2.687l-1.757 2.033.757.654Zm2.6 19.8.64-.768-.033-.028-.035-.025-.572.821Zm1.4 1.9-.868.496.288.504h.58v-1Zm4.4 0v-1 1Zm.1-.1-.949-.316-.051.154v.162h1Zm1.9-2-.309-.951-.007.002.316.949Zm49.5-16.6.276.961.02-.006.02-.006-.316-.949Zm.8-.3.707.707-1.023-1.656.316.949Zm-.1.1-.707-.707 1.307 1.507-.6-.8Zm1.3-.5.243.97.076-.019.072-.031-.391-.92Zm36.7-13 .33.944.002-.001-.332-.943Zm58.8-20.3-.327-.945-.005.002.332.943Zm6.2 1.1.672-.741-.003-.002-.669.743Zm12.8 15.4.266.964h.002l-.268-.964Zm-8.6 2.5-.266-.964-.067.018-.064.028.397.918Zm-34 12.1-.331-.944-.247.087-.173.197.751.66Zm2.6 19.9.64-.768-.041-.034-.044-.03-.555.832Zm1.5 1.9-.868.496.288.504h.58v-1Zm4.4 0v1h.768l.198-.742-.966-.258Zm2.9-2.5-.324-.946-.018.006-.017.007.359.933Zm51.6-17.7-.316-.949-.013.005.329.944Zm5 1.2-.894.447.276.553h.618v-1Zm.1.1h-1 2-1Zm-.1-.1v-1l-.371 1.928.371-.928Zm5.9 5.2v1h1.779l-.925-1.52-.854.52Zm-.2-.1.707-.707-1.414 1.414.707-.707Zm.1.1-.707.707.018.019.02.017.669-.743Zm1 .9.707-.707-.018-.019-.02-.017-.669.743Zm0 0 .11-.994-2.832-.315 2.015 2.016.707-.707Zm6 4.2-.664.747.002.002.662-.749Zm14.3 2.9.3.954.003-.001-.303-.953Zm57.5-18-.284-.959-.007.002-.007.003.298.954Zm8.1-2.2.284.959.065-.019.061-.028-.41-.912Zm4-1.8.41.912.116-.052.099-.079-.625-.781Zm7-2-.119.993 1.119.134V446.9h-1Zm0-.1-.238-.971-.762.186v.785h1Zm4.9-1.2h1v-1.274l-1.238.303.238.971Zm0 .1h-1v1.477l1.371-.549-.371-.928Zm38.4-12.5.318.948.045-.015.043-.019-.406-.914Zm2.7.4-.651.759.174.149.22.058.257-.966Zm38 12-.345.938.037.014.038.011.27-.963Zm54 17.1v1l.334-1.943-.334.943Zm0 .1v1h1v-1h-1Zm.1 0v1h1v-1h-1Zm-.1-.2.291-.957-1.291-.392v1.349h1Zm23.9 7.1.29-.957-.012-.004-.013-.003-.265.964Zm10.2 2-.088.996.011.001.077-.997Zm9.8-4.5.894.447 1.635-3.269-3.071 1.982.542.84Zm-.3.5-.894-.447 1.601 1.154-.707-.707Zm.3-.4-.6-.8-.189.142-.105.211.894.447Zm.8-.6v-1h-.333l-.267.2.6.8Zm.4-.2.447.894-.447-1.894v1Zm-.3 0-.707-.707-1.707 1.707h2.414v-1Zm5.2-4 .263.965.344-.094.207-.29-.814-.581Zm6-4.9.417.909.146-.067.118-.11-.681-.732Zm27-22.1.586.81.094-.068.076-.088-.756-.654Zm11-9.3.707.707-1.314-1.502.607.795Zm-.2.3h-1v2.414l1.707-1.707-.707-.707Zm.1-.2-.707-.707-.293.293v.414h1Zm1.1-.9.447.894-.447-1.894v1Zm-.3 0-.75-.662-1.466 1.662h2.216v-1Zm5.3-4 .41.912.15-.068.121-.111-.681-.733Zm27-22.1.582.813.09-.064.073-.082-.745-.667Zm5.9-4.6-.707-.707-1.707 1.707h2.414v-1Zm370.4-341.1h-1v.002l1-.002Zm4.2-5.7.3.955v-.002l.01-.002-.31-.951Zm44-14.5.32.946.01-.002-.33-.944Zm4.9 3.5 1 .004V36.9h-1Zm0 165.3h1v-.007l-1 .007Zm-5.9 8.4.26.964.01-.002-.27-.962Zm-42.4 13 .31.951-.31-.951Zm-4.8-3.6-1-.002V220h1Zm-40.9-157-.14-.99-.03.004-.03.006.2.98Zm1.9-.5-.31-.95-.01.001.32.949Zm8.6 164.3h1v-.008l-1 .008Zm-6.5 9-.13-.992-.02.002-.01.004.16.986Zm-5.2 1.6.34.94.06-.02.05-.026-.45-.894Zm-3.5-168.1-1 .026 1-.026Zm-27.9 4.6.28.96.01-.003-.29-.957Zm11.2 7.4h-1v.002l1-.002Zm0 157.5-1-.002v.002h1Zm-1.8 5.7-.35-.938-.01.005-.01.005.37.928Zm-11 3 .05-.999-.05.999Zm-1.2-86.3h1v-1h-1v1Zm-.3 0h-1v1h1v-1Zm-.1-82.5-1-.037v.044l1-.007Zm-25.3 4.6-.26-.965-.01.003-.01.002.28.96Zm8.8 164.8h1v-.007l-1 .007Zm-5.4 7.2-.27-.962-.01.001.28.961Zm-9.4-7.1h1v-.002l-1 .002Zm-.5-156.3-1-.02v.026l1-.006Zm-182.6 54.7.114.994.107-.013.102-.035-.323-.946Zm49.1-16.7-.32-.948.32.948Zm80.9-26.8.32.947v-.001l-.32-.946Zm5.2 3.6 1 .002v-.002h-1Zm0 161.9h1v-.002l-1 .002Zm-4.1 5.7-.28-.96-.01.003.29.957Zm-115.9 35.4-.292-.956-.07.021-.065.031.427.904Zm-22.7 7.5-.339-.941-.01.004-.01.004.359.933Zm-4.2-157.8h-1 1ZM68.7 425.8l-.294-.956-.008.003-.008.002.31.951ZM26.6 440l.324.946.006-.002-.33-.944Zm-4.9-3.5-1-.002v.002h1Zm0-162.9h-1v.002l1-.002Zm4.8-6.1.268.964.008-.003.008-.002-.284-.959Zm42.2-13.6-.323-.946-.003.001.326.945Zm4.7 3.4 1 .004v-.004h-1Zm0 161.4-1 .007v.019l1-.026Zm41.9-9.3-.403-.915-.012.005-.012.006.427.904Zm-11.3 3.8.164.986.019-.003.018-.003-.201-.98Zm-1.3-3.7-1 .011v.03l.003.03.997-.071Zm-.5-159.3h-1v.007l1-.007Zm7-9.7.251.968.004-.001-.255-.967Zm7.5 163h-1v.024l.001.024.999-.048Zm25.6-2.7.261.965.014-.003-.275-.962Zm-8.5-6.2-1-.004v.004h1Zm0-76.4h1v-1h-1v1Zm-.3 0h-1v1h1v-1Zm-.1-79.4 1-.008v-.013l-1 .021Zm5.9-7.9.263.965.006-.002-.269-.963Zm9.3 161.2h1v-.004l-1 .004Zm24.6-1.9-.155-.988-.003.001.158.987Zm-7.4 1.4.496-.868-1.496-.855v1.723h1Zm0 .1-.682.731 1.682 1.57V391.7h-1Zm-.8-4.7h1v-.002l-1 .002Zm-.3-158.9h-1v.002l1-.002Zm4.1-6.2-.06.998.185.011.176-.055-.301-.954Zm11.3 159.2 1 .018v-.024l-1 .006Zm551.6-340-.294-.956-.004.002.298.954Zm38-11.7.309.95.007-.001-.316-.949Zm4.9 3.7-1-.025v.01l1 .015Zm0 39.4h1v-.008l-1 .008Zm-4.5 3.4.33-.944-.008-.003-.008-.002-.314.949Zm-67.3-21.6.306-.952-.012-.004-.012-.003-.282.959Zm-4.9-2.7-.301-.954-1.226.387.677 1.093.85-.526Zm-293.1 83.8.614.789.008-.006.008-.006-.63-.777Zm88.6-71.6-.627-.78-.001.002.628.778ZM537.6 28l.635.773.008-.007L537.6 28Zm7.6-1.3-.307.952h.001l.306-.952Zm134.4 43-.302.953.147.047h.155v-1Zm.1.1-.707.707 1.707 1.707V69.8h-1Zm-.1-.1.124-.992-2.893-.362 2.062 2.061.707-.707Zm9 3-.663.749.158.14.201.064.304-.953Zm82.7 26.2-.301.954H771l.3-.954Zm-1.9 164.6-.322.947.006.002.316-.949ZM615 211.2l-.321.947.321-.947Zm-151.6-51.6.324-.946-.003-.001-.321.947ZM405.8 140l.321-.947-.005-.002-.316.949Zm-3.1-1.9-.997.071.001.02.002.019.994-.11Zm-18.5 180.6-.321-.947.321.947ZM251 363.9l.316.949.005-.002-.321-.947Zm-17.9 6.1.327.945.008-.003-.335-.942Zm-3.7-2.6.999.036.001-.018v-.018h-1Zm-.1-159.4h-1v.004l1-.004Zm5.9-8-.305-.953-.011.004.316.949Zm139.6-44.9.309.951.015-.005.015-.005-.339-.941Zm7.7 0-.339.941.009.003.008.003.322-.947Zm119.9 40.8-.322.947h.001l.321-.947Zm117.1 39.7.419-.908-.048-.022-.05-.017-.321.947Zm3.8 1.9.322.947 2.171-.74-2.019-1.087-.474.88Zm-37.9 13 .322.947.004-.001-.326-.946Zm-112.9 38.2-.32-.947h-.002l.322.947Zm297.6 156.5-.306.952.004.001.302-.953Zm-72.2-22.8-.447.894.071.036.075.024.301-.954Zm-1.1-1.6-.303-.953-1.321.42.815 1.121.809-.588Zm24.5-7.9-.3-.954-.009.003.309.951Zm47.6-14.8.295.956v-.001l-.295-.955Zm5.8-29h1v-.016l-1 .016Zm-4 5.7.296.955.011-.003-.307-.952Zm-177.1 55.1.296.955h.002l-.298-.955Zm-56.1 17.7-.306-.952-.037.012-.036.014.379.926Zm-6.3-1.3.707-.707-.03-.031-.034-.028-.643.766Zm-77.3-64.9-.642.766v.001l.642-.767Zm-50.2-41.9-.636.772.001.001.635-.773Zm.9-4.8-.321-.947-.003.001.324.946Zm127.5-43.2-.321-.947-.002.001.323.946ZM650.5 251l.333.943.002-.001-.335-.942Zm20 1.8-.321.947h.001l.32-.947Zm99.2 33.6-.318.948.009.003.309-.951Zm5 7.1-1-.025v.001l1 .024Zm26.1 140.6-.633-.774-.018.015-.018.016.669.743Zm-1-395-.651.76.01.008.01.007.631-.775Zm20.9 17-.637.771.003.003.634-.774Zm106.4 87-.633.774.014.012.014.01.605-.796Zm3.8 8.1-.998-.062-.002.029v.029l1 .004Zm-.1 78-1-.004v.001l1 .003ZM924 333.8l.627.779.006-.005.007-.006-.64-.768Zm-38.837 61.449c12.183-10.785 24.761-21.167 37.836-30.948l-1.198-1.602c-13.125 9.819-25.747 20.237-37.964 31.052l1.326 1.498Zm38.032-31.143c1.503-1.971 3.481-3.576 5.752-4.712l-.894-1.788c-2.529 1.264-4.75 3.059-6.448 5.288l1.59 1.212Zm6.035-4.922c5.921-6.316 12.633-11.351 20.041-15.302l-.942-1.764c-7.592 4.049-14.48 9.214-20.559 15.698l1.46 1.368Zm20.066-15.316c.709-.405 1.342-.764 2.055-1.032l-.702-1.872c-.887.332-1.654.773-2.345 1.168l.992 1.736Zm2.151-1.074c4.928-2.463 10.161-4.341 15.808-5.827l-.51-1.934c-5.753 1.514-11.12 3.436-16.192 5.973l.894 1.788Zm15.813-5.828c20.417-5.505 40.47-12.221 60.63-18.309l-.58-1.914c-20.24 6.112-40.187 12.796-60.57 18.291l.52 1.932Zm60.5-18.28c.62-.102 1.14-.186 1.64-.186v-2c-.7 0-1.38.116-1.96.214l.32 1.972Zm1.64-.186c.1 0 .2-.012.3-.041.11-.029.2-.071.27-.117a.73.73 0 0 0 .17-.124c.04-.03.06-.059.07-.061.01-.01-.01.006-.03.024-.02.021-.07.056-.12.092-.07.037-.14.071-.22.094a.929.929 0 0 1-.24.033v-2c-.1 0-.2.012-.3.041a.917.917 0 0 0-.27.117.73.73 0 0 0-.17.124c-.04.03-.06.059-.07.061-.01.01.01-.006.03-.024.02-.021.07-.056.12-.092.07-.037.14-.071.22-.094a.929.929 0 0 1 .24-.033v2Zm-.51-1.807-.1.1 1.42 1.414.1-.1-1.42-1.414Zm.61 1.807c.28 0 .49-.076.57-.101.07-.025.01.001-.07.001v-2c-.28 0-.49.076-.57.101-.07.025-.01-.001.07-.001v2Zm.91-.188a66.97 66.97 0 0 1 15.08-4.729l-.38-1.966a69.044 69.044 0 0 0-15.52 4.871l.82 1.824Zm14.89-4.712c.19 0 .34-.047.43-.079.08-.031.15-.069.17-.077.03-.017.01-.004-.02.008a.826.826 0 0 1-.28.048v-2c-.19 0-.34.047-.43.079-.08.031-.15.069-.17.077-.03.017-.01.004.02-.008a.826.826 0 0 1 .28-.048v2Zm-.41-1.807-.1.1 1.42 1.414.1-.1-1.42-1.414Zm.61 1.807c.28 0 .49-.076.57-.101.07-.025.01.001-.07.001v-2c-.28 0-.49.076-.57.101-.07.025-.01-.001.07-.001v2Zm.87-.17c7.05-2.782 14.4-5.065 21.84-6.652l-.42-1.956c-7.56 1.613-15.01 3.93-22.16 6.748l.74 1.86Zm22.08-6.736c-.02.007-.02.004.09-.024.09-.022.29-.069.51-.176l-.9-1.788c.02-.007.02-.004-.09.024-.09.022-.29.069-.51.176l.9 1.788Zm-.56-1.801-.1.1 1.42 1.414.1-.1-1.42-1.414Zm.61 1.807a1.272 1.272 0 0 0 .35-.051 2.813 2.813 0 0 0 .21-.065l.01-.004c0 .001-.01.004-.04.009-.02.003-.06.011-.13.011v-2a1.272 1.272 0 0 0-.35.051 2.813 2.813 0 0 0-.21.065l-.01.004c0-.001.01-.004.04-.009.02-.003.06-.011.13-.011v2Zm.81-.188c4.82-2.166 9.95-3.744 15.08-4.73l-.38-1.964c-5.27 1.014-10.54 2.636-15.52 4.87l.82 1.824Zm14.89-4.712c.19 0 .34-.047.43-.079.08-.031.15-.069.17-.076.03-.018.01-.005-.02.007a.826.826 0 0 1-.28.048v-2c-.19 0-.34.047-.43.079-.08.031-.15.069-.17.076-.03.018-.01.005.02-.007a.826.826 0 0 1 .28-.048v2Zm-.41-1.807-.1.1 1.42 1.414.1-.1-1.42-1.414Zm.61 1.807c.11 0 .6.018 1.01-.393l-1.42-1.414c.04-.035.08-.073.14-.107a.701.701 0 0 1 .18-.069c.09-.022.16-.017.09-.017v2Zm.66-.165c14.16-5.386 28.78-9.263 43.34-13.78l-.6-1.91c-14.44 4.483-29.22 8.406-43.46 13.82l.72 1.87Zm43.34-13.78c43.49-13.499 87.09-26.798 130.69-40.199l-.58-1.912c-43.6 13.399-87.2 26.7-130.71 40.201l.6 1.91Zm130.69-40.199c19.52-6.006 39-12.298 58.58-17.895l-.54-1.923c-19.62 5.604-39.14 11.912-58.62 17.906l.58 1.912Zm58.59-17.897c3.51-1.032 6.36-2.522 8.62-4.629 2.25-2.109 3.86-4.789 4.95-8.118l-1.9-.624c-1.01 3.07-2.45 5.441-4.42 7.282-1.97 1.843-4.52 3.203-7.81 4.171l.56 1.918Zm13.62-13.059v-.2h-2v.2h2Zm0-.2v-.5h-2v.5h2Zm-1-.5h1v-.1h-2v.1h1Zm.85-.621c-.43-.701-.58-1.463-.61-2.342-.02-.445-.01-.904.01-1.399.02-.484.05-1.012.05-1.538h-2c0 .474-.02.946-.04 1.456-.02.499-.04 1.027-.02 1.557.04 1.071.24 2.209.91 3.308l1.7-1.042Zm-.55-5.279v-187h-2v187h2Zm0-187c0-.535-.03-1.067-.06-1.553-.03-.499-.05-.955-.04-1.396.02-.869.17-1.61.63-2.296l-1.66-1.11c-.74 1.114-.94 2.273-.97 3.354-.01.534.01 1.065.04 1.56.03.508.06.976.06 1.441h2Zm.7-5.8V17h-2v.3h2Zm-.1-.727-3.4-7.2-1.8.854 3.4 7.2 1.8-.854Zm-3.57-7.458-1.6-1.7-1.46 1.37 1.6 1.7 1.46-1.37Zm-1.77-1.844c-4.66-3.145-9.43-2.77-14.28-1.118l.64 1.894c4.55-1.548 8.58-1.773 12.52.882l1.12-1.658Zm-14.28-1.12c-22.1 7.4-44.17 14.776-66.25 22.15-22.07 7.375-44.15 14.75-66.25 22.15l.64 1.897c22.1-7.4 44.17-14.774 66.25-22.15 22.07-7.375 44.15-14.75 66.25-22.15l-.64-1.896Zm-132.5 44.3c-47.8 15.9-95.59 31.8-143.49 47.6l.62 1.899c47.9-15.8 95.71-31.701 143.51-47.601l-.64-1.898Zm-143.49 47.6c-9.71 3.2-19.38 6.451-29.06 9.701-9.674 3.25-19.346 6.499-29.043 9.698l.626 1.9c9.703-3.201 19.381-6.452 29.057-9.702 9.67-3.25 19.35-6.499 29.04-9.698l-.62-1.9Zm-58.033 19.379c-.477.119-.615.17-.857.17v2c.558 0 1.02-.149 1.343-.23l-.486-1.94Zm-1.1.2c-.289.072-.534.179-.701.251a2.734 2.734 0 0 1-.399.149l.486 1.94c.289-.072.534-.179.701-.251.183-.078.288-.121.399-.149l-.486-1.94Zm-.15 2.077.1-.1-1.414-1.414-.1.1 1.414 1.414Zm-.882-1.769c-.321.092-.622.162-.95.238-.322.074-.671.154-1.05.262l.55 1.924c.321-.092.622-.162.95-.238.322-.074.671-.154 1.05-.262l-.55-1.924Zm-2.13.548c-4.35 1.927-8.858 3.464-13.425 4.924-4.55 1.455-9.185 2.841-13.705 4.448l.67 1.884c4.48-1.593 9.045-2.957 13.644-4.427 4.584-1.465 9.175-3.028 13.626-5.001l-.81-1.828Zm-27.126 9.371c-.725.254-1.328.236-1.873.064-.569-.179-1.13-.543-1.717-1.067-.589-.525-1.153-1.166-1.748-1.857-.578-.671-1.196-1.403-1.839-2.019l-1.384 1.444c.557.534 1.102 1.177 1.708 1.881.589.684 1.231 1.418 1.93 2.043.701.626 1.508 1.187 2.449 1.483.964.303 2.011.31 3.136-.086l-.662-1.886Zm-7.406-5.044c-2.182-1.138-4.196-2.763-5.937-4.601l-1.452 1.376c1.859 1.962 4.045 3.737 6.463 4.999l.926-1.774Zm-5.956-4.62c-.16-.16-.483-.499-.86-.687l-.894 1.788c-.01-.005.016.008.088.071.071.062.147.137.252.242l1.414-1.414Zm-.6-.5-.005-.005-.001-.001-.001-.001-.001-.001-.001-.001-.005-.005-.005-.005-.004-.005-.005-.004-.005-.005-.002-.002-.002-.003c-.008-.007.003.004-.005-.004l-.005-.005-.004-.005a.022.022 0 0 1-.005-.004l-.005-.005-.001-.001-.001-.001-.003-.003-.004-.004-.005-.005-.005-.005-.001-.001v-.001h-.001v-.001h-.001l-.001-.001-.005-.005-.005-.005-.004-.005-.005-.004-.005-.005-.001-.001v-.001h-.001c-.004-.004.001.001-.002-.003l-.002-.001-.001-.001-.001-.001-.001-.001-.005-.005-.001-.001-.001-.001c-.007-.008.005.005-.002-.003a.022.022 0 0 1-.005-.004l-.005-.005-.002-.002c-.003-.003.001.001-.001-.002l-.002-.001-.004-.004-.005-.005-.005-.005-.001-.001v-.001h-.001l-.001-.001-.001-.001-.005-.005-.005-.005-.004-.005-.005-.004-.005-.005-.002-.002-.002-.003c-.008-.007.003.004-.005-.004l-.005-.005-.004-.005a.022.022 0 0 1-.005-.004l-.005-.005-.002-.002-.002-.003-.005-.004-.005-.005-.005-.005-.001-.001v-.001h-.001l-.001-.001-.001-.001-.005-.005-.005-.005-.004-.005-.005-.004-.005-.005v-.001h-.001l-.001-.001c-.004-.004.001.001-.002-.003l-.002-.001-.001-.001-.001-.001-.001-.001-.005-.005-.001-.001-.001-.001c-.024-.024.022.021-.002-.003l-.005-.004-.005-.005v-.001h-.001l-.001-.001-.002-.003-.005-.004-.005-.005-1.414 1.414.005.005.001.001.001.001.001.001.001.001.005.005.005.005.004.005.005.004.005.005.002.002.002.003c.008.007-.003-.004.005.004l.005.005.004.005.005.004.005.005.001.001.001.001.003.003.004.004.005.005.005.005.001.001v.001h.001l.001.001.001.001.005.005.005.005.004.005.005.004.005.005.001.001v.001h.001c.004.004-.001-.001.002.003l.002.001.001.001.001.001.001.001.005.005.001.001.001.001c.007.008-.005-.005.002.003l.005.004.005.005.002.002c.003.003-.001-.001.001.002l.002.001.004.004.005.005.005.005.001.001v.001h.001l.001.001.001.001.005.005.005.005.004.005.005.004.005.005.002.002.002.003c.008.007-.003-.004.005.004l.005.005.004.005.005.004.005.005.002.002.002.003a.022.022 0 0 1 .005.004l.005.005.005.005.001.001v.001h.001l.001.001.001.001.005.005.005.005.004.005.005.004.005.005.001.001.001.001c.004.004-.001-.001.002.003l.002.001.001.001.001.001.001.001.005.005.001.001.001.001c.024.024-.022-.021.002.003l.005.004.005.005v.001h.001l.001.001.003.003.004.004.005.005 1.414-1.414Zm-2.007.407v.1h2v-.1h-2Zm1.534-.746c-1.933-1.22-3.618-2.305-4.677-4.069l-1.714 1.029c1.341 2.237 3.456 3.552 5.323 4.731l1.068-1.691Zm-5.087-4.448c-1.513-.757-3.207-1.619-4.511-2.594-1.367-1.023-1.966-1.919-1.937-2.674l-1.998-.076c-.071 1.845 1.33 3.299 2.738 4.351 1.471 1.1 3.327 2.038 4.814 2.781l.894-1.788Zm-6.448-5.273c.015-.428.18-.717.497-.975.36-.29.913-.533 1.664-.746.745-.211 1.571-.364 2.448-.537.847-.168 1.749-.355 2.528-.633l-.672-1.884c-.621.222-1.382.385-2.244.555-.833.164-1.762.336-2.605.575-.837.237-1.702.569-2.377 1.116-.717.58-1.202 1.391-1.237 2.463l1.998.066Zm7.126-2.887c6.537-2.248 12.551-5.08 19.151-6.262l-.352-1.968c-6.799 1.217-13.186 4.185-19.449 6.338l.65 1.892Zm19.386-6.334c11.06-4.982 22.515-8.03 34.027-12.171l-.676-1.882c-11.288 4.06-23.033 7.211-34.173 12.23l.822 1.823Zm34.027-12.17c15.595-5.6 31.372-10.79 46.992-16.197l-.66-1.89c-15.58 5.392-31.403 10.602-47.008 16.204l.676 1.882Zm46.982-16.193c.82-.274 1.74-.46 2.68-.554l-.2-1.99c-1.06.106-2.14.32-3.12.646l.64 1.898Zm2.95-.62c14.77-5.887 29.92-10.673 44.95-15.782l-.64-1.894c-14.97 5.09-30.22 9.905-45.05 15.818l.74 1.858Zm44.95-15.782c8.42-2.84 16.36-6.384 24.88-8.168l-.4-1.958c-8.68 1.816-16.94 5.472-25.12 8.231l.64 1.895Zm23.97-9.854c-.07.076-.18.156-.33.253-.08.049-.15.095-.24.15-.08.05-.18.11-.27.172l1.1 1.664c.06-.038.13-.078.21-.13.08-.05.18-.11.28-.173.2-.128.44-.298.67-.522l-1.42-1.414Zm.16 2.301c.12-.062.28-.116.52-.195.21-.07.5-.167.78-.305l-.9-1.788c-.12.062-.28.116-.52.195-.21.07-.5.167-.78.305l.9 1.788Zm.14-2.101-.1.1 1.42 1.414.1-.1-1.42-1.414Zm1.06 1.701a.632.632 0 0 1 .12-.045c.08-.028.21-.07.38-.155l-.9-1.788a.639.639 0 0 1-.12.045c-.08.028-.21.07-.38.155l.9 1.788Zm.05-2.094c-.11 0-.18 0-.25-.008a.26.26 0 0 1-.05-.007c-.01-.002.01.002.05.02l-.9 1.79c.26.13.53.17.7.188.18.018.36.017.45.017v-2Zm-.31 1.819c6.37-2.734 12.88-5.023 19.47-7.247 6.57-2.22 13.22-4.378 19.79-6.835l-.7-1.874c-6.53 2.443-13.13 4.584-19.73 6.815-6.59 2.226-13.18 4.537-19.61 7.303l.78 1.838Zm39.26-14.083c4.79-1.795 9.63-3.192 14.54-4.851 4.88-1.645 9.73-3.521 14.32-6.223l-1.02-1.724c-4.41 2.598-9.11 4.422-13.93 6.052-4.79 1.616-9.8 3.069-14.61 4.874l.7 1.872Zm29.22-11.45c2.12-3.8 2.85-8.232 2.12-12.458l-1.97.344c.66 3.774-.01 7.742-1.89 11.142l1.74.972Zm.42-11.579c.04.037.14.142.26.23.11.081.37.263.75.263v-2c.14 0 .26.036.33.067.06.03.11.06.12.07.02.012.02.017.01.007-.01-.01-.03-.024-.05-.051l-1.42 1.414Zm1.01-.507h1v-.1h-2v.1h1Zm.95-.416a7.277 7.277 0 0 0-.17-.455c-.05-.126-.09-.226-.13-.345l-1.9.632c.06.181.12.331.17.455.05.126.09.226.13.345l1.9-.632Zm-2.25-.484c0 .132.02.246.03.33.02.077.04.16.04.2.03.095.03.133.03.17h2c0-.263-.05-.475-.07-.604-.02-.074-.03-.097-.03-.123V6.9h-2Zm1.9.096c-2.68-3.534-5.02-5.738-7.91-6.57-2.88-.829-6.09-.23-10.32 1.229l.66 1.89c4.17-1.44 6.86-1.842 9.11-1.197 2.23.644 4.24 2.39 6.86 5.856l1.6-1.208Zm-18.22-5.342c-15.8 5.399-31.69 10.594-47.5 15.898l.64 1.896c15.79-5.296 31.7-10.5 47.5-15.902l-.64-1.892Zm-47.55 15.918c-1 .397-2.03.812-3.08 1.334l.9 1.788c.95-.478 1.92-.863 2.92-1.265l-.74-1.857Zm-1.92 2.935.1-.1-1.42-1.414-.1.1 1.42 1.414Zm-.81-1.788c-.52.106-.94.21-1.34.31l.48 1.941c.4-.1.78-.195 1.26-.29l-.4-1.96Zm-1.48.358c-12.47 5.184-25.39 9.06-38.15 13.478l.66 1.89c12.64-4.381 25.72-8.306 38.25-13.522l-.76-1.846Zm-38.15 13.48c-9.75 3.417-19.28 7.19-29.22 9.775l.5 1.936c10.06-2.614 19.73-6.442 29.38-9.824l-.66-1.888Zm-29.42 9.849c-.28.143-.58.22-.99.324l.48 1.94c.39-.097.89-.22 1.41-.476l-.9-1.788Zm-.04 2.001.1-.1-1.42-1.414-.1.1 1.42 1.414Zm-.93-1.756-.45.15-.45.15.64 1.898.45-.15.45-.15-.64-1.898Zm-1.07.378c-3.77 2.124-7.89 2.983-12.18 4.21l.54 1.922c4.11-1.173 8.59-2.114 12.62-4.39l-.98-1.742Zm-12.36 4.277c-.14.07-.3.169-.41.236a4.98 4.98 0 0 1-.29.164l.9 1.788c.14-.07.3-.169.41-.236.14-.083.23-.135.29-.164l-.9-1.788Zm.46 2.001.1-.1-1.42-1.414-.1.1 1.42 1.414Zm-.93-1.756c-.28.096-.6.192-.92.293-.33.1-.66.203-.98.307l.64 1.898c.28-.096.6-.193.92-.293.33-.1.66-.203.98-.307l-.64-1.898Zm-1.95.619a355.23 355.23 0 0 1-31.508 10.77l.556 1.92a357.816 357.816 0 0 0 31.692-10.83l-.74-1.86Zm-31.601 10.8-.75.3-.75.3.742 1.858.75-.3.75-.3-.742-1.858Zm-.422 2.236.1-.1-1.414-1.414-.1.1 1.414 1.414ZM984.2 59.4c-.126 0-.24.015-.322.028-.083.013-.166.03-.224.041a4.033 4.033 0 0 1-.144.028c-.038.005-.036.003-.01.003v2c.126 0 .24-.015.322-.028.083-.013.166-.03.224-.041l.144-.028c.038-.006.036-.003.01-.003v-2Zm-1.092.18c-12.165 5.185-24.758 8.748-37.34 13.177l.664 1.886c12.418-4.37 25.225-8.008 37.46-13.223l-.784-1.84Zm-37.334 13.174c-14.796 5.1-29.586 9.996-44.394 14.999l.64 1.894c14.792-4.997 29.602-9.9 44.406-15.002l-.652-1.89Zm-44.445 15.017-.75.3-.75.3.742 1.858.75-.3.75-.3-.742-1.858ZM900.2 90.3h.1v-2h-.1v2Zm-.347-1.894c-.355.177-.487.194-.553.194v2c.534 0 1.002-.183 1.447-.406l-.894-1.788Zm-.909.26c-.385.146-.659.157-.863.122-.208-.036-.42-.133-.657-.316-.537-.416-.968-1.053-1.643-1.897l-1.562 1.25c.525.656 1.194 1.62 1.982 2.228.425.33.932.601 1.54.706.611.105 1.25.029 1.915-.225l-.712-1.869Zm-3.394-2.301c-4.339-2.86-8.39-6.218-12.152-9.881l-1.396 1.433c3.838 3.736 7.987 7.178 12.448 10.118l1.1-1.67ZM882.7 78.2h.1v-2h-.1v2Zm.751-1.76-.7-.6-1.302 1.52.7.6 1.302-1.52Zm-.644-.547-.15-.15-.15-.15-1.414 1.414.15.15.15.15 1.414-1.414Zm-1.714 1.114c-.076-.076-.112-.16-.087-.11.025.05.111.234.287.41l1.414-1.414c.076.076.112.16.087.11-.025-.05-.111-.234-.287-.41l-1.414 1.414Zm1.477-1.228c-3.634-2.524-7.098-4.84-9.789-8.204l-1.562 1.25c2.909 3.636 6.645 6.12 10.211 8.596l1.14-1.642ZM872 68.2h-1v.1h2v-.1h-1Zm.316-.849c-.69-.23-1.159-.474-1.444-.691-.296-.227-.284-.336-.278-.285.01.09-.059.048.144-.139.211-.195.619-.445 1.306-.697l-.688-1.878c-.813.298-1.493.66-1.975 1.106-.491.453-.86 1.08-.775 1.833.081.714.543 1.26 1.053 1.65.522.398 1.215.729 2.025.999l.632-1.898Zm-.28-1.809c8.678-3.092 17.55-5.784 26.367-8.59l-.606-1.905c-8.783 2.795-17.711 5.503-26.433 8.611l.672 1.884ZM898.1 56v-1h-.1v2h.1v-1Zm.271.928c11.469-4.587 23.14-8.577 34.913-12.07l-.568-1.917c-11.827 3.508-23.556 7.518-35.087 12.13l.742 1.858ZM933 43.9h-1v.1h2v-.1h-1Zm.413 1.01c9.66-4.381 19.804-7.025 29.926-10.67l-.678-1.88c-9.878 3.555-20.334 6.311-30.074 10.73l.826 1.82Zm29.927-10.67c5.39-1.946 10.806-3.793 16.233-5.644 5.423-1.85 10.857-3.702 16.267-5.655l-.68-1.882c-5.39 1.947-10.806 3.794-16.233 5.644-5.423 1.85-10.857 3.703-16.267 5.656l.68 1.881Zm32.508-11.303c3.681-1.367 6.352-3.587 7.792-6.38 1.44-2.8 1.58-6.065.4-9.391l-1.88.668c1.02 2.874.86 5.559-.3 7.808-1.16 2.258-3.389 4.188-6.708 5.42l.696 1.875Zm8.192-15.773c-2.22-6.235-9.378-8.947-16.274-6.507l.668 1.886c6.103-2.16 11.946.328 13.726 5.293l1.88-.672ZM987.773.655c-9.098 3.15-18.222 6.274-27.347 9.399a8774.483 8774.483 0 0 0-27.353 9.401l.654 1.89c9.098-3.15 18.222-6.274 27.347-9.399 9.125-3.125 18.251-6.25 27.353-9.401l-.654-1.89Zm-54.697 18.799c-13.301 4.55-26.577 9.126-39.852 13.7-13.275 4.576-26.549 9.15-39.848 13.7l.648 1.892c13.301-4.55 26.577-9.126 39.852-13.7 13.275-4.576 26.549-9.15 39.848-13.7l-.648-1.892Zm-79.651 27.385c-.617.176-1.332.266-2.066.371l.282 1.98c.666-.095 1.551-.205 2.334-.428l-.55-1.923Zm-1.925.361a1.125 1.125 0 0 0-.807.343l.026-.024a.879.879 0 0 1 .581-.219v2a1.125 1.125 0 0 0 .742-.282c.034-.03.062-.058.065-.06l-.026.023a.879.879 0 0 1-.581.219v-2Zm.507 1.807.1-.1-1.414-1.414-.1.1 1.414 1.414Zm-1.054-1.701-.3.15-.3.15.894 1.788.3-.15.3-.15-.894-1.788Zm-.663.334c-.561.332-.992.438-1.323.443-.326.005-.633-.087-.954-.28-.707-.421-1.336-1.219-2.128-2.223l-1.57 1.24c.708.896 1.579 2.048 2.672 2.701.579.346 1.247.573 2.009.562.756-.011 1.525-.255 2.314-.723l-1.02-1.72Zm-4.698-2.31c-2.219-1.255-4.237-2.832-6.252-4.51-1.993-1.662-4.015-3.451-6.146-5.025l-1.188 1.61c2.069 1.526 3.997 3.237 6.054 4.95 2.035 1.697 4.167 3.37 6.548 4.716l.984-1.742Zm-12.386-9.525c-.482-.368-.769-.666-.919-.889-.147-.218-.108-.277-.117-.232-.008.043-.019-.033.208-.194.229-.163.617-.35 1.216-.534l-.588-1.912c-.701.216-1.314.48-1.787.816-.476.339-.894.813-1.014 1.456-.121.645.099 1.236.424 1.718.321.477.797.929 1.365 1.361l1.212-1.59Zm.383-1.848c3.18-.959 6.301-2.15 9.37-3.24 3.09-1.096 6.16-2.101 9.337-2.736l-.392-1.962c-3.323.665-6.503 1.71-9.613 2.814-3.131 1.11-6.16 2.269-9.28 3.21l.578 1.914Zm17.804-7.664c-.033.033-.03.03-.021.022a.886.886 0 0 1 .488-.211c.045-.005.084-.004.04-.004v2c.006 0 .082.001.159-.007a1.104 1.104 0 0 0 .651-.292c.039-.036.08-.076.097-.094l-1.414-1.414Zm.507 1.807a1.2 1.2 0 0 0 .426-.08 1.67 1.67 0 0 0 .171-.076c.035-.017.012-.004-.021.008a.785.785 0 0 1-.276.048v-2a1.2 1.2 0 0 0-.426.08 1.67 1.67 0 0 0-.171.076c-.035.017-.012.004.021-.008a.788.788 0 0 1 .276-.048v2Zm.3-2.1h-.1v2h.1v-2Zm.408 1.861c2.683-1.58 5.689-2.498 8.832-3.495 3.102-.984 6.328-2.044 9.208-3.93l-1.096-1.673c-2.62 1.715-5.594 2.705-8.717 3.696-3.082.978-6.326 1.96-9.243 3.68l1.016 1.723Zm16.785-8.968-.15.15-.15.15 1.414 1.414.15-.15.15-.15-1.414-1.414Zm1.114 1.714.15-.15.15-.15-1.414-1.414-.15.15-.15.15 1.414 1.414Zm.3-.3.6-.6-1.414-1.414-.6.6 1.414 1.414ZM870.7 19h1v.016l-.001.016-.001.035a.868.868 0 0 1-.091.33.909.909 0 0 1-.807.503v-2a1.1 1.1 0 0 0-.613.184 1.097 1.097 0 0 0-.484.84l-.002.042-.001.018v.015l1 .001Zm.1-1.1c-.001 0-.086-.002-.168.008a1.045 1.045 0 0 0-.627.297 1.041 1.041 0 0 0-.297.627c-.009.082-.008.168-.008.168h2c0-.05.001-.002-.005.052-.005.047-.034.326-.275.567-.242.242-.52.271-.567.276-.055.006-.102.005-.053.005v-2Zm.776 1.581c1.971-3.586 2.999-6.411 2.732-9.238-.267-2.823-1.808-5.444-4.432-8.674l-1.552 1.262c2.576 3.17 3.785 5.399 3.993 7.6.208 2.2-.563 4.574-2.493 8.088l1.752.962ZM869.468 1.27a19.243 19.243 0 0 0-14.136 0l.736 1.86a17.24 17.24 0 0 1 12.664 0l.736-1.86Zm-14.106-.011c-6.939 2.496-13.905 4.843-20.869 7.194-6.962 2.35-13.922 4.703-20.834 7.207l.682 1.88c6.888-2.495 13.828-4.842 20.791-7.192 6.961-2.35 13.945-4.703 20.907-7.207l-.677-1.882Zm-41.693 14.397c-1.764.62-3.028.724-4.012.435-.957-.282-1.832-.99-2.704-2.414l-1.706 1.046c1.028 1.676 2.253 2.818 3.846 3.286 1.566.46 3.303.215 5.238-.466l-.662-1.886ZM806.1 15.2a.872.872 0 0 1-.455-.127.879.879 0 0 1-.126-.091l-.026-.025a1.198 1.198 0 0 0 .233.185 1.106 1.106 0 0 0 .574.158v-2a.876.876 0 0 1 .581.218l.026.025a1.116 1.116 0 0 0-.807-.343v2Zm.907-1.607-.1-.1-1.414 1.414.1.1 1.414-1.414Zm-.1-.1-.1-.1-1.414 1.414.1.1 1.414-1.414Zm-1.807.607v.1h2v-.1h-2Zm1.41-.812c-1.871-.842-3.643-2.152-4.938-3.724l-1.544 1.272c1.505 1.828 3.533 3.318 5.662 4.276l.82-1.824ZM800.8 10.2v1h.1v-2h-.1v1Zm.751-.76-.7-.6-1.302 1.52.7.6 1.302-1.52Zm-.351.16a1.119 1.119 0 0 0-.343-.807c-.01-.01.006.005.024.026a.893.893 0 0 1 .219.581h-2a1.119 1.119 0 0 0 .343.807c.01.01-.006-.005-.024-.026a.894.894 0 0 1-.186-.344.859.859 0 0 1-.033-.237h2Zm-2.1-.2c0 .007-.001.083.007.16a1.092 1.092 0 0 0 .292.65c.036.04.077.08.094.097l1.414-1.414c-.032-.033-.029-.03-.022-.021.01.01.069.075.122.18a.912.912 0 0 1 .09.308c.004.045.003.083.003.04h-2Zm1.667-.624c-1.578-1.085-3.147-2.262-4.612-3.532l-1.31 1.512c1.535 1.33 3.166 2.553 4.788 3.668l1.134-1.648Zm-4.56-3.483c-4.309-4.309-9.483-4.909-14.859-4.081l.304 1.976c5.024-.773 9.45-.172 13.141 3.52l1.414-1.415ZM781.5 2.2l-.001-1h-.007a.498.498 0 0 0-.068.003 1.135 1.135 0 0 0-.421.115 1.094 1.094 0 0 0-.603.982h2a.916.916 0 0 1-.751.888.9.9 0 0 1-.133.012h-.015l-.001-1Zm-.1.1v-1h-.1v2h.1v-1Zm-.547-.894c.012-.007.016-.004-.096.024-.088.022-.292.07-.504.176l.894 1.788c-.012.007-.016.004.096-.024.088-.022.292-.07.504-.176l-.894-1.788Zm-.504.158c-13.571 5.089-27.584 8.761-41.551 13.183l.604 1.906c13.833-4.378 28.02-8.106 41.649-13.217l-.702-1.872Zm-41.548 13.182c-12.597 3.949-25.195 7.823-37.795 11.698-12.6 3.875-25.202 7.75-37.805 11.702l.598 1.908c12.597-3.949 25.195-7.823 37.795-11.698 12.599-3.875 25.202-7.75 37.805-11.702l-.598-1.908Zm-75.631 23.41a8.416 8.416 0 0 1-5.54 0l-.66 1.888c2.214.775 4.646.775 6.86 0l-.66-1.888Zm-5.563-.008c-33.5-10.8-67.001-21.6-100.503-32.3l-.608 1.905c33.498 10.7 66.997 21.499 100.497 32.299l.614-1.904ZM557.096 5.845c-4.302-1.332-8.543-2.288-12.34-4.235l-.912 1.78c4.003 2.053 8.562 3.097 12.66 4.365l.592-1.91ZM544.3 2.5v-1h-.1v2h.1v-1Zm.096-.98c-6.356-1.272-11.566.56-16.361 4.833l1.33 1.494c4.405-3.927 8.995-5.495 14.639-4.366l.392-1.962Zm-16.357 4.83c-4.245 3.74-8.243 7.541-13.022 10.174l.966 1.752c5.021-2.767 9.223-6.766 13.378-10.426l-1.322-1.5ZM515.5 17.4l-.001-1h-.015a1.081 1.081 0 0 0-.164.015 1.085 1.085 0 0 0-.92 1.085h2a.916.916 0 0 1-.751.888.886.886 0 0 1-.117.012h-.031l-.001-1Zm-.1-.9a1.13 1.13 0 0 0-.574.158 1.11 1.11 0 0 0-.168.124c-.034.03-.062.058-.065.06l.026-.023a.879.879 0 0 1 .581-.219v2a1.125 1.125 0 0 0 .742-.282c.034-.03.062-.058.065-.06l-.026.024a.879.879 0 0 1-.581.218v-2Zm-.89.376c-6.361 6.063-13.222 11.632-20.483 16.704l1.146 1.64c7.339-5.128 14.278-10.76 20.717-16.896l-1.38-1.448Zm-20.617 16.817-.1.1-.1.1 1.414 1.414.1-.1.1-.1-1.414-1.414Zm.507 1.907h.1v-2h-.1v2Zm-.455-1.832c-.39.26-.651.524-.852.725l1.414 1.414c.199-.199.338-.335.548-.475l-1.11-1.664Zm-.818.693c-7.767 7.07-16.035 13.644-24.606 19.723l1.158 1.632c8.629-6.122 16.961-12.747 24.794-19.877l-1.346-1.478Zm-24.734 19.832a3.387 3.387 0 0 1-.268.226c-.113.091-.285.227-.432.374l1.414 1.414a3.59 3.59 0 0 1 .268-.226c.114-.091.285-.227.432-.374l-1.414-1.414Zm.714 2.014.1-.1-1.414-1.414-.1.1 1.414 1.414ZM468.5 54.5a1.13 1.13 0 0 0-.574.158 1.107 1.107 0 0 0-.168.124c-.034.03-.062.058-.065.06l.026-.023a.879.879 0 0 1 .581-.219v2a1.125 1.125 0 0 0 .807-.343l-.026.025a.879.879 0 0 1-.581.218v-2Zm-.915.4c-4.343 4.443-9.283 8.396-14.525 11.758l1.08 1.684c5.358-3.438 10.418-7.485 14.875-12.043l-1.43-1.398ZM453.6 66.5a1.125 1.125 0 0 0-.807.343c-.01.01.005-.006.026-.024a.878.878 0 0 1 .581-.219v2a1.125 1.125 0 0 0 .807-.343c.01-.01-.005.006-.026.024a.871.871 0 0 1-.581.219v-2Zm-.825.32-1 .8 1.25 1.56 1-.8-1.25-1.56Zm-1.082.873c-4.554 4.554-9.5 8.609-14.837 12.068l1.088 1.678c5.463-3.54 10.517-7.686 15.163-12.332l-1.414-1.414Zm-14.925 12.132c-7.657 6.246-14.882 12.686-22.583 18.686l1.23 1.578c7.699-6 15.074-12.56 22.617-18.714l-1.264-1.55Zm-22.588 18.69c-11.474 9.059-22.279 18.784-34.157 27.168l1.154 1.634c11.922-8.416 22.917-18.291 34.243-27.232l-1.24-1.57ZM380.6 126.5v-1h-.1v2h.1v-1Zm-.911-.585c-3.67 5.081-9.296 6.6-15.2 8.535l.622 1.9c5.696-1.865 12.07-3.546 16.2-9.265l-1.622-1.17Zm-15.195 8.533c-14.95 4.8-29.875 9.6-44.8 14.4-14.925 4.8-29.85 9.6-44.8 14.4l.612 1.904c14.95-4.8 29.875-9.6 44.8-14.4 14.925-4.8 29.85-9.6 44.8-14.4l-.612-1.904Zm-89.458 28.766c-.293.048-.612.097-.938.148-.324.049-.655.1-.962.152l.328 1.972c.293-.048.612-.097.938-.148.324-.049.655-.1.962-.152l-.328-1.972Zm-2.052.337-.45.15-.45.15.632 1.898.45-.15.45-.15-.632-1.898Zm-.895.299a15544.95 15544.95 0 0 0-26.152 8.6c-8.725 2.875-17.449 5.75-26.148 8.6l.622 1.9c8.701-2.85 17.427-5.725 26.152-8.6 8.725-2.875 17.449-5.75 26.148-8.6l-.622-1.9Zm-52.297 17.199c-7.165 2.321-14.17 4.988-21.406 6.574l.428 1.954c7.364-1.614 14.559-4.347 21.594-6.626l-.616-1.902ZM198.6 187.6c-.189 0-.339.047-.426.079a1.551 1.551 0 0 0-.171.077c-.035.017-.012.004.021-.008a.786.786 0 0 1 .276-.048v2c.189 0 .339-.047.426-.079.083-.031.156-.069.171-.077.035-.017.012-.004-.021.008a.786.786 0 0 1-.276.048v-2Zm.407 1.807.1-.1-1.414-1.414-.1.1 1.414 1.414Zm-.607-.807v-1h-.1v2h.1v-1Zm-.1-1a1.246 1.246 0 0 0-.354.051c-.066.018-.131.04-.162.05l-.044.015-.012.004.037-.009c.021-.003.069-.011.135-.011v2a1.246 1.246 0 0 0 .354-.051c.066-.018.131-.04.162-.05l.044-.015.013-.004-.038.009c-.021.003-.069.011-.135.011v-2Zm-.765.169c-13.473 5.29-27.374 9.057-41.251 13.682l.632 1.898c13.723-4.575 27.822-8.408 41.349-13.718l-.73-1.862Zm-41.243 13.68c-.956.31-1.893.669-2.805 1.026-.92.36-1.809.714-2.708 1.032-1.794.635-3.545 1.093-5.379 1.093v2c2.166 0 4.165-.542 6.046-1.207.938-.332 1.868-.703 2.77-1.055.91-.356 1.798-.697 2.693-.987l-.617-1.902ZM145.4 204.6h-.1v2h.1v-2Zm-.1 2h.1v-2h-.1v2Zm.1-2a1.206 1.206 0 0 0-.498.107l-.036.015c-.008.003.053-.022.134-.022v2c.282 0 .492-.075.609-.122l.053-.021c.011-.005.006-.002-.006.002-.019.006-.117.041-.256.041v-2Zm-.763.168c-11.762 4.585-23.925 8.474-36.091 11.665l.508 1.934c12.234-3.209 24.471-7.12 36.309-11.735l-.726-1.864ZM108.8 216.4a1.246 1.246 0 0 0-.354.051c-.066.018-.131.04-.162.05l-.044.015-.012.004.037-.009c.021-.003.069-.011.135-.011v2a1.246 1.246 0 0 0 .354-.051c.066-.018.131-.04.162-.05l.044-.015.013-.004-.038.009c-.021.003-.069.011-.135.011v-2Zm.307 1.807.1-.1-1.414-1.414-.1.1 1.414 1.414Zm-.607-.807v-1h-.1v2h.1v-1Zm-.468-.93c-10.059 3.984-20.319 7.271-30.781 9.961l.498 1.937c10.538-2.709 20.878-6.022 31.019-10.038l-.736-1.86ZM77.5 227.4v-1h-.1v2h.1v-1Zm-.49-.921c-7.049 2.979-14.287 5.357-21.816 6.942l.412 1.958c7.671-1.615 15.033-4.037 22.183-7.058l-.778-1.842ZM55.4 234.4v-1h-.1v2h.1v-1Zm-.494-.919c-5.2 2.229-10.56 3.991-15.978 5.677-5.404 1.681-10.888 3.291-16.263 5.2l.67 1.884c5.325-1.891 10.742-3.481 16.187-5.175 5.431-1.689 10.872-3.477 16.172-5.748l-.788-1.838Zm-32.242 10.877c-1.726.617-3.481 1.161-5.256 1.703-1.769.54-3.561 1.08-5.33 1.679-3.539 1.201-7.043 2.664-10.257 4.944l1.158 1.631c2.986-2.119 6.282-3.506 9.742-4.681 1.732-.587 3.49-1.116 5.271-1.66 1.775-.543 3.57-1.099 5.344-1.732l-.672-1.884ZM2.4 253.5c-.97.243-.969-.248-.733-.68l.012-.013a.042.042 0 0 1 .007-.007l.004-.004.001-.001.001-.001v-.001.002l-.012.01a8.489 8.489 0 0 1-.087.088l1.414 1.414.088-.087c.006-.007.01-.01.01-.012l.002-.001v-.001l.002-.001.002-.001.003-.004.007-.007.013-.013c.235-.432.236-.923-.734-.68Zm-.994.547a.32.32 0 0 1-.03-.079c-.002-.012-.001-.015-.001-.006s0 .025-.005.047a.539.539 0 0 1-.019.075l1.898.632c.148-.446.206-1.042-.055-1.563l-1.788.894Zm-.097.485c.087.651.02 1.063-.12 1.329-.122.234-.373.493-.987.685l.596 1.908c.986-.308 1.736-.849 2.163-1.665.41-.784.444-1.672.33-2.521l-1.982.264ZM.5 257.5h-1v.1h2v-.1h-1Zm-.997.017C-.6 258.765-.6 259.905-.6 261.1h2c0-1.205 0-2.265.097-3.417l-1.994-.166ZM-.6 261.1v199.1h2V261.1h-2Zm.267 199.78c3.824 4.122 6.477 6.504 9.774 7.163 3.253.651 6.95-.42 12.685-2.398l-.652-1.89c-5.866 2.022-9.018 2.851-11.64 2.327-2.577-.516-4.825-2.384-8.7-6.562l-1.467 1.36Zm22.46 4.765c30.596-10.599 61.29-20.897 91.994-31.298l-.642-1.894c-30.696 10.399-61.402 20.701-92.006 31.302l.654 1.89Zm91.869-31.264c.387-.078.789-.081 1.304-.081v-2c-.485 0-1.083-.003-1.696.119l.392 1.962Zm1.304-1.081v1h.1v-2h-.1v1Zm.1-1h-.1v2h.1v-2Zm-.1 2a1.246 1.246 0 0 0 .354-.051c.066-.018.131-.04.162-.05l.044-.015.012-.004-.037.009c-.021.003-.069.011-.135.011v-2a1.246 1.246 0 0 0-.354.051c-.066.018-.131.04-.162.05l-.044.015-.012.004.037-.009c.021-.003.069-.011.135-.011v2Zm.769-.171c15.575-6.19 31.503-10.965 47.458-16.484l-.654-1.89c-15.845 5.481-31.917 10.306-47.542 16.516l.738 1.858Zm47.457-16.484c23.497-8.098 47.09-15.996 70.695-23.998l-.642-1.894c-23.595 7.998-47.202 15.901-70.705 24.002l.652 1.89Zm70.649-23.983c.617-.177 1.333-.267 2.066-.372l-.282-1.98c-.666.095-1.551.205-2.334.428l.55 1.924Zm1.925-.362c.006 0 .082.001.159-.007.104-.01.241-.037.388-.111.13-.065.221-.143.263-.181.039-.036.08-.076.097-.094l-1.414-1.414-.021.021a.908.908 0 0 1 .488-.211c.045-.004.084-.003.04-.003v2Zm-.507-1.807-.1.1 1.414 1.414.1-.1-1.414-1.414Zm.607 1.807a1.246 1.246 0 0 0 .354-.051c.066-.018.131-.04.162-.05l.044-.015.012-.004-.037.009c-.021.003-.069.011-.135.011v-2a1.246 1.246 0 0 0-.354.051c-.066.018-.131.04-.162.05l-.044.015-.012.004.037-.009c.021-.003.069-.011.135-.011v2Zm.772-.172c16.174-6.489 32.896-11.462 49.356-17.183l-.656-1.89c-16.34 5.679-33.218 10.707-49.444 17.217l.744 1.856Zm49.355-17.183c14.147-4.899 28.294-9.698 42.444-14.498 14.15-4.8 28.303-9.601 42.456-14.502l-.654-1.89c-14.147 4.899-28.294 9.698-42.444 14.498-14.15 4.8-28.303 9.601-42.456 14.502l.654 1.89Zm84.889-28.996c1.933-.644 3.486-.972 4.783-.773 1.208.185 2.322.85 3.346 2.542l1.711-1.036c-1.276-2.108-2.863-3.193-4.755-3.483-1.803-.276-3.75.196-5.717.852l.632 1.898Zm8.277 1.958.1.1 1.414-1.414-.1-.1-1.414 1.414Zm.1.1.1.1 1.414-1.414-.1-.1-1.414 1.414Zm.205.191c6.119 4.615 12.238 9.158 17.363 14.776l1.478-1.348c-5.275-5.782-11.556-10.439-17.637-15.024l-1.204 1.596ZM397.9 364.3a.853.853 0 0 1-.236-.033.85.85 0 0 1-.345-.186l-.026-.024a1.107 1.107 0 0 0 .807.343v-2c.072 0 .153.009.236.033a.85.85 0 0 1 .345.185l.026.025a1.107 1.107 0 0 0-.807-.343v2Zm-.488-.174 1.9 1.8 1.376-1.452-1.9-1.8-1.376 1.452Zm1.881 1.781.1.1 1.414-1.414-.1-.1-1.414 1.414Zm.736.39c.638.046 1.089.177 1.35.365.184.132.355.339.323.879l1.996.118c.069-1.16-.361-2.053-1.152-2.621-.713-.512-1.612-.681-2.375-.735l-.142 1.994Zm1.674 1.226c-.015.192-.079.315-.393.479a4.509 4.509 0 0 1-.668.266c-.245.081-.594.187-.884.292l.684 1.88c.26-.095.498-.164.829-.274.299-.099.644-.223.969-.393.687-.361 1.372-.988 1.457-2.096l-1.994-.154Zm-1.926 1.031c-20.2 6.9-40.402 13.8-60.604 20.801l.654 1.89c20.198-6.999 40.396-13.899 60.596-20.799l-.646-1.892Zm-60.602 20.8c-6.394 2.198-12.86 4.187-19.287 6.296l.624 1.9c6.373-2.091 12.907-4.102 19.313-6.304l-.65-1.892ZM320.2 396.6l.001 1h.016l.018-.001.041-.002a1.124 1.124 0 0 0 .421-.115 1.09 1.09 0 0 0 .603-.982h-2c0-.15.04-.329.152-.497a.92.92 0 0 1 .599-.391c.031-.005.058-.008.082-.01l.035-.001.016-.001h.015l.001 1Zm-.289-1.021c-12.756 5.381-26.085 9.358-39.334 13.874l.646 1.893c13.151-4.483 26.622-8.506 39.466-13.925l-.778-1.842Zm-39.336 13.875c-10.274 3.526-20.169 7.588-30.607 10.073l.464 1.946c10.562-2.515 20.667-6.653 30.793-10.127l-.65-1.892Zm-29.668 11.753c-.028.029-.045.039-.028.027l.076-.052c.034-.023.089-.059.143-.098.052-.038.131-.098.209-.177l-1.414-1.414c.028-.029.045-.039.028-.027a1.796 1.796 0 0 1-.076.052c-.034.023-.089.059-.143.098a1.701 1.701 0 0 0-.209.177l1.414 1.414Zm-.754-1.901a.765.765 0 0 1-.119.045c-.082.028-.214.071-.381.155l.894 1.788a.765.765 0 0 1 .119-.045c.082-.028.214-.071.381-.155l-.894-1.788Zm.654 1.801.1-.1-1.414-1.414-.1.1 1.414 1.414Zm-1.054-1.701a1.377 1.377 0 0 1-.19.074.756.756 0 0 1-.079.019c-.019.004-.012.001.016.001v2c.427 0 .891-.177 1.147-.306l-.894-1.788Zm-.253 2.094c.247 0 .479-.041.614-.064.165-.027.233-.036.286-.036v-2c-.247 0-.479.041-.614.064a1.975 1.975 0 0 1-.286.036v2Zm.484-2.009c-10.647 4.875-21.825 7.934-33.015 11.866l.663 1.886c11.009-3.868 22.431-7.009 33.184-11.934l-.832-1.818Zm-33.021 11.868c-5.4 1.935-10.343 4.173-15.822 5.054l.318 1.974c5.721-.919 10.978-3.281 16.178-5.146l-.674-1.882Zm-14.956 6.748c-.028.029-.045.039-.028.027l.076-.052c.034-.023.089-.059.143-.098.052-.038.131-.099.209-.177l-1.414-1.414c.028-.029.045-.039.028-.027a1.796 1.796 0 0 1-.076.052c-.034.023-.089.059-.143.098a1.796 1.796 0 0 0-.209.177l1.414 1.414Zm-.754-1.901a.765.765 0 0 1-.119.045c-.082.028-.214.071-.381.155l.894 1.788a.765.765 0 0 1 .119-.045c.082-.028.214-.071.381-.155l-.894-1.788Zm-.053 2.094h.1v-2h-.1v2Zm.1-2c-.007 0-.083-.001-.159.007a1.12 1.12 0 0 0-.651.292c-.039.036-.08.077-.097.094l1.414 1.414.022-.022a.83.83 0 0 1-.181.122.919.919 0 0 1-.308.09c-.045.004-.083.003-.04.003v-2Zm-.2 2.1h.3v-2h-.3v2Zm-.081-1.924c-11.361 4.683-23.125 8.671-34.994 12.062l.55 1.924c11.931-3.409 23.767-7.421 35.206-12.137l-.762-1.849Zm-35.139 12.117-4.1 1.9.84 1.814 4.1-1.9-.84-1.814Zm-3.68 2.807-.001-1h-.015l-.018.001-.041.002a1.124 1.124 0 0 0-.422.115 1.089 1.089 0 0 0-.603.982h2a.912.912 0 0 1-.833.898l-.035.002h-.031l-.001-1Zm-.1 1.1h.1v-2h-.1v2Zm-.536-1.772a7.726 7.726 0 0 1-5.319 1.773l-.09 1.998a9.732 9.732 0 0 0 6.681-2.227l-1.272-1.544Zm-5.804 1.874c-4.809 2.353-7.825 5.274-8.566 8.99-.735 3.69.854 7.79 4.311 12.315l1.59-1.214c-3.343-4.375-4.504-7.875-3.939-10.71.559-2.809 2.893-5.338 7.484-7.585l-.88-1.796Zm-3.56 21.693 1 .1.2-1.99-1-.1-.2 1.99Zm.813.063c2.18.654 4.305.617 6.313.464 2.058-.156 3.908-.419 5.824-.323l.1-1.998c-2.084-.104-4.184.183-6.076.327-1.942.147-3.767.16-5.587-.386l-.574 1.916Zm12.488.096c4.624-1.458 9.181-3.17 13.71-4.787 4.544-1.623 9.079-3.158 13.727-4.296l-.476-1.942c-4.752 1.162-9.367 2.727-13.923 4.354-4.571 1.633-9.063 3.321-13.64 4.763l.602 1.908ZM192.7 465.4c.189 0 .339-.047.426-.079.083-.031.156-.069.171-.077.035-.017.012-.004-.021.008a.786.786 0 0 1-.276.048v-2c-.189 0-.339.047-.426.079a1.551 1.551 0 0 0-.171.077c-.035.017-.012.004.021-.008a.786.786 0 0 1 .276-.048v2Zm-.407-1.807-.1.1 1.414 1.414.1-.1-1.414-1.414Zm.607 1.807h.1v-2h-.1v2Zm.416-.051.23-.081a3.58 3.58 0 0 1 .141-.048.371.371 0 0 1 .113-.02v-2c-.512 0-.948.195-1.116.251l.632 1.898Zm.82-.207c11.51-4.104 22.997-8.299 34.493-12.297l-.658-1.889c-11.504 4.001-23.017 8.206-34.507 12.302l.672 1.884Zm34.494-12.298c6.306-2.202 12.629-4.076 18.986-6.195l-.632-1.898c-6.243 2.081-12.72 4.007-19.014 6.205l.66 1.888Zm19.117-6.25c.194-.096.341-.169.569-.245l-.632-1.898a5.72 5.72 0 0 0-.831.355l.894 1.788Zm-.454-1.901-.1.1 1.414 1.414.1-.1-1.414-1.414Zm.607 1.807c.115 0 .596.018 1.007-.393l-1.414-1.414a.664.664 0 0 1 .315-.176c.088-.022.161-.017.092-.017v2Zm.673-.172a374.544 374.544 0 0 1 34.208-11.868l-.562-1.92a376.836 376.836 0 0 0-34.392 11.932l.746 1.856Zm34.634-12.121a.694.694 0 0 1-.203.144c-.021.01-.035.014.012-.002.028-.009.117-.038.207-.079.095-.043.243-.122.384-.263l-1.414-1.414a.708.708 0 0 1 .203-.144c.021-.01.035-.014-.012.002a1.986 1.986 0 0 0-.207.079 1.297 1.297 0 0 0-.384.263l1.414 1.414Zm-1.014-1.614-.1.1 1.414 1.414.1-.1-1.414-1.414Zm.607.807v1h.1v-2h-.1v1Zm.1 1c.278 0 .491-.076.566-.101.075-.025.012.001-.066.001v-2c-.278 0-.491.076-.566.101-.075.025-.012-.001.066-.001v2Zm.871-.172c10.973-4.388 22.139-8.277 33.401-11.466l-.544-1.924c-11.338 3.211-22.572 7.122-33.599 11.534l.742 1.856Zm33.445-11.479c.291-.097.713-.233 1.139-.517l-1.11-1.664c-.174.116-.352.18-.661.283l.632 1.898Zm-.123-2.056-.1.1 1.414 1.414.1-.1-1.414-1.414Zm.607 1.807c.278 0 .491-.076.566-.101.075-.025.012.001-.066.001v-2c-.278 0-.491.076-.566.101-.075.025-.012-.001.066-.001v2Zm.911-.188c10.152-4.579 20.725-7.435 31.321-11.169l-.664-1.886c-10.404 3.666-21.231 6.61-31.479 11.231l.822 1.824Zm31.322-11.169c16.396-5.799 32.887-11.395 49.394-17.098l-.653-1.89c-16.494 5.697-33.003 11.301-49.407 17.102l.666 1.886Zm49.284-17.067 1.35-.3 1.35-.3-.434-1.952-1.35.3-1.35.3.434 1.952Zm2.483-1.576.001 1h.016l.018-.001.041-.002a1.157 1.157 0 0 0 .421-.115 1.09 1.09 0 0 0 .603-.982h-2c0-.15.04-.329.152-.497a.92.92 0 0 1 .599-.391c.031-.005.058-.008.082-.01l.035-.001.016-.001h.015l.001 1Zm-.607-.807-.1.1 1.414 1.414.1-.1-1.414-1.414Zm.607.807v1h.1v-2h-.1v1Zm.1 1c.018 0 .077 0 .14-.004.06-.004.179-.015.314-.06a1.09 1.09 0 0 0 .518-.364 1.09 1.09 0 0 0 .228-.672h-2c0-.148.04-.359.194-.556a.906.906 0 0 1 .427-.305c.098-.033.173-.037.186-.038.016-.001.025-.001-.007-.001v2Zm.629-.197c6.051-2.876 12.389-4.518 18.814-6.864l-.686-1.878c-6.175 2.254-12.837 4.012-18.986 6.936l.858 1.806Zm18.827-6.869c.875-.333 1.611-.358 2.289-.18.698.185 1.412.606 2.193 1.296l1.324-1.5c-.919-.81-1.904-1.439-3.007-1.729-1.122-.296-2.286-.222-3.511.245l.712 1.868Zm4.492 1.124c6.407 5.506 13.013 11.011 19.513 16.411l1.278-1.538c-6.5-5.4-13.094-10.895-19.487-16.389l-1.304 1.516Zm19.512 16.41c.592.494 1.025.895 1.305 1.233.296.358.298.502.298.494.001-.075.061.003-.247.228-.319.235-.89.514-1.832.828l.632 1.898c1.008-.336 1.812-.694 2.383-1.113.583-.427 1.05-1.019 1.063-1.806.013-.72-.367-1.333-.755-1.803-.405-.49-.959-.989-1.567-1.495l-1.28 1.536Zm-.484 2.786c-31.001 10.6-61.904 21.301-92.902 32.001l.652 1.89c31.002-10.7 61.899-21.399 92.898-31.999l-.648-1.892Zm-92.902 32.001c-7.399 2.549-14.773 5.074-22.148 7.599-7.375 2.525-14.751 5.05-22.152 7.601l.652 1.89c7.399-2.549 14.773-5.074 22.148-7.599 7.375-2.525 14.751-5.05 22.152-7.601l-.652-1.89ZM307.9 454.9h1v-.1h-2v.1h1Zm-.757-.754c-3.547 4.105-5.367 7.793-4.897 11.396.469 3.599 3.175 6.739 7.682 9.879l1.144-1.642c-4.393-3.06-6.487-5.77-6.843-8.496-.355-2.722.975-5.834 4.428-9.829l-1.514-1.308Zm2.717 21.222c.437.364.753.896 1.172 1.628l1.736-.992c-.381-.668-.865-1.537-1.628-2.172l-1.28 1.536Zm2.04 2.132h4.4v-2h-4.4v2Zm4.4-1 .001 1h.015l.018-.001.041-.002a1.124 1.124 0 0 0 .422-.115 1.093 1.093 0 0 0 .603-.982h-2a.912.912 0 0 1 .833-.898l.035-.001.016-.001h.015l.001 1Zm1.049.216c.218-.655.716-1.184 1.267-1.367l-.632-1.898c-1.249.417-2.151 1.488-2.533 2.633l1.898.632Zm1.26-1.365c16.697-5.431 32.771-11.791 49.467-16.59l-.552-1.922c-16.704 4.801-33.03 11.241-49.533 16.61l.618 1.902Zm49.507-16.602c.182-.061.332-.121.455-.171.127-.05.227-.09.345-.129l-.632-1.898a8.612 8.612 0 0 0-.455.17c-.127.051-.226.091-.345.13l.632 1.898Zm-.223-1.956-.1.1 1.414 1.414.1-.1-1.414-1.414Zm1.207 1.607c.084-.063.201-.121.366-.176.177-.059.343-.096.577-.154l-.486-1.94c-.319.08-1.058.221-1.657.67l1.2 1.6Zm1.091-.38c11.962-5.083 24.27-8.652 36.639-12.976l-.66-1.888c-12.231 4.276-24.723 7.907-36.761 13.024l.782 1.84Zm36.641-12.977c9.795-3.448 19.591-6.797 29.391-10.147 9.8-3.35 19.604-6.701 29.409-10.153l-.664-1.886c-9.795 3.448-19.591 6.797-29.391 10.147-9.8 3.349-19.604 6.701-29.409 10.153l.664 1.886Zm58.795-20.298c1.231-.426 2.096-.544 2.834-.421.723.12 1.454.495 2.37 1.319l1.338-1.486c-1.084-.976-2.153-1.601-3.38-1.806-1.212-.202-2.446.03-3.816.504l.654 1.89Zm5.201.896c4.324 3.921 8.844 7.637 13.456 11.246l1.232-1.575c-4.588-3.59-9.068-7.274-13.344-11.153l-1.344 1.482Zm13.456 11.246c.554.434.964.808 1.23 1.128.131.157.21.281.255.374.043.091.044.131.044.129-.002-.069.061-.019-.173.154-.259.192-.752.427-1.608.664l.536 1.928c.944-.263 1.713-.578 2.263-.986.577-.427.995-1.027.981-1.796-.012-.69-.376-1.284-.76-1.747-.4-.48-.94-.956-1.536-1.423l-1.232 1.575Zm-.25 2.449c-1.462.403-2.896.831-4.32 1.256-1.426.425-2.841.847-4.28 1.244l.532 1.928c1.462-.403 2.896-.831 4.32-1.256 1.426-.425 2.842-.847 4.28-1.244l-.532-1.928Zm-8.731 2.546c-11.059 4.782-22.459 8.048-33.934 12.074l.662 1.888c11.326-3.974 22.925-7.308 34.066-12.126l-.794-1.836Zm-34.354 12.358c-3.652 4.159-5.499 7.923-5.015 11.567.484 3.643 3.247 6.782 7.811 9.825l1.11-1.664c-4.436-2.957-6.573-5.668-6.939-8.425-.366-2.756.987-5.942 4.535-9.983l-1.502-1.32Zm2.711 21.328c.47.392.9.977 1.272 1.628l1.736-.992c-.427-.749-.998-1.564-1.728-2.172l-1.28 1.536Zm2.14 2.132h4.3v-2h-4.3v2Zm4.3 0h.1v-2h-.1v2Zm1.066-.742c.255-.954.946-1.307 2.293-1.825l-.718-1.866c-1.253.482-2.962 1.129-3.507 3.175l1.932.516Zm2.258-1.812c17.193-5.898 34.403-11.701 51.605-17.702l-.658-1.888c-17.197 5.999-34.388 11.796-51.595 17.698l.648 1.892Zm51.592-17.697c1.103-.368 1.836-.578 2.418-.517.25.026.461.104.661.26.212.164.457.449.711.955l1.788-.894c-.346-.694-.763-1.246-1.274-1.642a3.234 3.234 0 0 0-1.679-.668c-1.093-.114-2.26.276-3.257.608l.632 1.898Zm4.684.251-.001 1h-.015l-.016-.001-.035-.001a.866.866 0 0 1-.33-.091.912.912 0 0 1-.503-.807h2a1.097 1.097 0 0 0-1.066-1.099l-.018-.001h-.015l-.001 1Zm.1.1 1-.001v-.015l-.001-.018-.002-.041a1.124 1.124 0 0 0-.115-.422 1.093 1.093 0 0 0-.982-.603v2a.912.912 0 0 1-.898-.833l-.001-.035-.001-.016v-.015l1-.001Zm-.471.828c2.262.905 4.106 2.639 5.417 4.792l1.708-1.04c-1.49-2.447-3.644-4.513-6.383-5.608l-.742 1.856Zm6.271 3.272c-.043 0-.005-.001.04.003a.919.919 0 0 1 .308.09.83.83 0 0 1 .181.122l-.022-.022-1.414 1.414c.017.017.058.058.097.094a1.12 1.12 0 0 0 .651.292c.076.008.152.007.159.007v-2Zm-.907 1.607.1.1 1.414-1.414-.1-.1-1.414 1.414Zm.138.136 1 .9 1.338-1.486-1-.9-1.338 1.486Zm.962.864.1.1 1.414-1.414-.1-.1-1.414 1.414Zm1.514-1.314-.1-.1-1.414 1.414.1.1 1.414-1.414Zm-.917 1.601c1.069.119 1.934.63 2.793 1.374.433.376.847.795 1.285 1.242.429.438.886.91 1.368 1.337l1.328-1.494c-.418-.373-.823-.789-1.267-1.242a24.007 24.007 0 0 0-1.405-1.354c-1.016-.881-2.251-1.67-3.882-1.851l-.22 1.988Zm5.448 3.955c2.26 1.998 4.643 3.243 7.207 3.745 2.562.501 5.234.248 8.055-.64l-.6-1.908c-2.579.812-4.906 1.009-7.07.585-2.161-.423-4.228-1.478-6.268-3.28l-1.324 1.498Zm15.265 3.104c19.197-6.099 38.291-11.997 57.495-17.999l-.596-1.908c-19.196 5.998-38.302 11.9-57.505 18.001l.606 1.906Zm57.481-17.994c1.331-.394 2.664-.74 4.017-1.091 1.347-.349 2.714-.704 4.083-1.109l-.568-1.918c-1.331.395-2.664.74-4.017 1.091-1.347.349-2.714.704-4.083 1.109l.568 1.918Zm8.226-2.247 4-1.8-.82-1.824-4 1.8.82 1.824Zm4.215-1.931a8.36 8.36 0 0 1 6.256-1.788l.238-1.986a10.364 10.364 0 0 0-7.744 2.212l1.25 1.562Zm7.375-2.781v-.1h-2v.1h2Zm-.762.871 4.9-1.2-.476-1.942-4.9 1.2.476 1.942Zm4.662-2.171h-1v.1h2v-.1h-1Zm.371 1.028c12.483-4.993 25.423-8.138 38.347-12.48l-.636-1.896c-12.676 4.258-25.936 7.513-38.453 12.52l.742 1.856Zm38.435-12.514c.531-.236 1.222-.115 1.643.245l1.302-1.518c-.979-.84-2.488-1.119-3.757-.555l.812 1.828Zm2.037.452a428.303 428.303 0 0 1 37.912 11.972l.69-1.877a430.292 430.292 0 0 0-38.088-12.028l-.514 1.933Zm37.987 11.997a844.459 844.459 0 0 1 53.936 17.08l.668-1.886a847.188 847.188 0 0 0-54.064-17.12l-.54 1.926ZM751.4 461.7h-.2v2h.2v-2Zm-.2 2c.032 0 .023 0 .007-.001-.013-.001-.088-.005-.186-.038a.906.906 0 0 1-.427-.305.906.906 0 0 1-.194-.556h2a1.09 1.09 0 0 0-.228-.672 1.09 1.09 0 0 0-.518-.364 1.266 1.266 0 0 0-.314-.06c-.063-.004-.122-.004-.14-.004v2Zm.2-.9v1h.1v-2h-.1v1Zm1.1 0a1.125 1.125 0 0 0-.158-.574 1.107 1.107 0 0 0-.124-.168c-.03-.034-.058-.062-.061-.065l.025.026a.85.85 0 0 1 .185.345.853.853 0 0 1 .033.236h-2a1.125 1.125 0 0 0 .158.574 1.107 1.107 0 0 0 .185.233l-.025-.026a.865.865 0 0 1-.218-.581h2Zm-1.391.757c7.89 2.397 15.909 4.903 23.926 7.107l.53-1.928c-7.983-2.196-15.964-4.69-23.874-7.093l-.582 1.914Zm23.901 7.1c3.361 1.019 6.929 1.733 10.402 2.039l.176-1.992c-3.327-.294-6.759-.98-9.998-1.961l-.58 1.914Zm10.413 2.04c2.228.171 4.109-.552 5.778-1.519.831-.481 1.626-1.033 2.387-1.574.773-.548 1.503-1.079 2.254-1.564l-1.084-1.68c-.799.515-1.582 1.084-2.328 1.614-.757.537-1.487 1.042-2.231 1.473-1.481.858-2.95 1.385-4.622 1.256l-.154 1.994Zm8.983-5.944a1.48 1.48 0 0 1-.088.142c-.05.075-.132.196-.212.358l1.788.894a1.48 1.48 0 0 1 .088-.142c.05-.075.132-.196.212-.358l-1.788-.894Zm1.301 1.654c.121-.121.314-.312.487-.66l-1.788-.894c-.019.037-.031.052-.037.06a1.183 1.183 0 0 1-.076.08l1.414 1.414Zm.193-.307.8-.6-1.2-1.6-.8.6 1.2 1.6Zm.2-.4c.195 0 .353-.049.457-.092.099-.041.18-.089.22-.113.106-.064.116-.073.17-.101l-.894-1.788a2.87 2.87 0 0 0-.2.11l-.067.041-.038.023c-.008.005-.007.004-.001.001s.023-.012.049-.023a.804.804 0 0 1 .304-.058v2Zm.4-2.2h-.3v2h.3v-2Zm.407 1.707c.864-.864 1.532-1.631 2.328-2.331.761-.669 1.528-1.166 2.428-1.411l-.526-1.93c-1.3.355-2.333 1.058-3.222 1.839-.854.75-1.686 1.683-2.422 2.419l1.414 1.414Zm5.307-4.126c1.393-1.951 3.353-3.541 5.603-4.572l-.834-1.818c-2.55 1.169-4.79 2.979-6.397 5.228l1.628 1.162Zm5.867-4.749c8.468-7.87 17.536-15.244 26.905-22.022l-1.172-1.62c-9.431 6.822-18.562 14.248-27.095 22.177l1.362 1.465Zm27.075-22.178c3.112-3.598 6.987-6.21 10.851-9.159l-1.214-1.59c-3.736 2.851-7.861 5.639-11.149 9.441l1.512 1.308Zm9.537-10.661c-.176.176-.262.359-.287.41-.025.049.011-.034.087-.11l1.414 1.414c.176-.176.262-.359.287-.41.025-.049-.011.034-.087.11l-1.414-1.414Zm1.507 1.007a.865.865 0 0 1-.218.581l-.025.026a1.107 1.107 0 0 0 .343-.807h-2c0-.072.009-.153.033-.236a.85.85 0 0 1 .185-.345l.025-.026a1.107 1.107 0 0 0-.343.807h2Zm-.193.507.7-.7-1.414-1.414-.7.7 1.414 1.414Zm.7-.7a.625.625 0 0 1-.124.096c-.037.021-.062.031-.049.026l.035-.014.069-.027c.058-.023.128-.053.209-.094l-.894-1.788c-.05.025-.048.02-.162.065a1.452 1.452 0 0 0-.498.322l1.414 1.414Zm-.307-1.907h-.3v2h.3v-2Zm.45 1.662c1.42-1.609 3.108-2.916 4.96-3.75l-.82-1.824c-2.148.966-4.06 2.46-5.64 4.25l1.5 1.324Zm5.231-3.929c8.47-7.873 17.437-15.246 26.901-22.02l-1.164-1.626c-9.536 6.826-18.569 14.253-27.099 22.181l1.362 1.465Zm27.064-22.166c1.639-1.832 3.542-3.443 5.802-4.573l-.894-1.788c-2.54 1.27-4.637 3.059-6.398 5.027l1.49 1.334Zm5.355-6.467a1.095 1.095 0 0 0-.932.508c-.098.147-.018.028.025-.015l1.414 1.414a1.45 1.45 0 0 0 .225-.29.91.91 0 0 1-.732.383v-2Zm-.2 2.2c.375 0 .667-.178.845-.355.177-.178.355-.47.355-.845h-2c0-.275.128-.467.23-.57a.806.806 0 0 1 .57-.23v2Zm-.8-1.2v.075h2v-.075h-2v.075h2v-.075h-2Zm372.2-340.9c0-1.526.3-2.48.81-3.143.51-.668 1.33-1.182 2.69-1.602l-.6-1.91c-1.54.48-2.82 1.166-3.68 2.298-.87 1.137-1.22 2.583-1.22 4.357h2Zm3.51-4.75c14.69-4.797 29.4-9.5 44.01-14.504l-.64-1.892c-14.59 4.997-29.28 9.693-43.99 14.495l.62 1.902Zm44.02-14.506c.97-.34 1.68-.505 2.19-.538.5-.033.71.067.82.147.11.086.26.284.38.788.12.506.18 1.208.18 2.159h2c0-.999-.06-1.885-.23-2.62-.17-.736-.49-1.432-1.11-1.908-.62-.482-1.38-.614-2.17-.562-.78.05-1.69.285-2.72.646l.66 1.888Zm3.57 2.552c-.1 28.002-.1 55.904-.1 83.904h2c0-28 0-55.898.1-83.896l-2-.008Zm-.1 83.904c0 27.095-.1 54.302.1 81.407l2-.014c-.2-27.095-.1-54.288-.1-81.393h-2Zm.1 81.4c0 2.264-.26 3.766-.96 4.862-.67 1.06-1.88 1.91-4.21 2.576l.54 1.924c2.57-.734 4.31-1.784 5.36-3.424 1.03-1.604 1.27-3.602 1.27-5.938h-2Zm-5.16 7.436c-14.23 3.906-28.35 8.413-42.45 13.013l.62 1.902c14.1-4.6 28.18-9.093 42.35-12.987l-.52-1.928Zm-42.45 13.013c-.97.315-1.67.464-2.17.486-.49.022-.69-.08-.79-.158-.1-.087-.25-.289-.37-.802-.11-.513-.16-1.219-.16-2.175h-2c0 .994.05 1.876.21 2.607.16.73.46 1.428 1.06 1.916.6.497 1.35.645 2.14.61.77-.034 1.67-.247 2.7-.582l-.62-1.902Zm-3.49-2.647c.1-55.501.1-111.003 0-166.404l-2 .004c.1 55.399.1 110.897 0 166.396l2 .004ZM1213.94 63.99c.8-.115 1.48-.344 2.08-.541l-.64-1.898c-.6.203-1.12.373-1.72.459l.28 1.98Zm2.07-.54c2.15-.708 3.68-1.211 4.81-1.454 1.19-.254 1.59-.135 1.74-.029.14.1.38.419.51 1.6.13 1.125.13 2.707.13 4.933h2c0-2.174 0-3.892-.14-5.154-.13-1.207-.43-2.363-1.35-3.013-.91-.645-2.1-.55-3.31-.292-1.26.27-2.91.817-5.01 1.51l.62 1.899Zm7.19 5.05v78.4h2V68.5h-2Zm0 78.4c0 26.595-.1 53.302.1 79.907l2-.015c-.2-26.595-.1-53.287-.1-79.892h-2Zm.1 79.9c0 2.586-.26 4.407-1.04 5.661-.72 1.17-2.02 2.02-4.59 2.347l.26 1.984c2.93-.373 4.88-1.423 6.03-3.278 1.1-1.771 1.34-4.1 1.34-6.714h-2Zm-5.66 8.014c-1.87.31-3.77.834-5.49 1.692l.9 1.788c1.48-.742 3.18-1.219 4.91-1.508l-.32-1.972Zm-5.38 1.646c-1.04.377-1.36.213-1.42.162-.1-.078-.34-.411-.34-1.522h-2c0 1.189.21 2.406 1.11 3.103.94.724 2.17.56 3.33.137l-.68-1.88Zm-1.76-1.36v-3.5h-2v3.5h2Zm0-3.5V114.2h-2v117.4h2Zm0-117.4c0-14.998 0-30.011-.4-44.927l-2 .054c.4 14.884.4 29.87.4 44.873h2Zm-.4-44.926c-.05-1.848.27-2.979.83-3.718.56-.728 1.49-1.25 3.07-1.577l-.4-1.959c-1.82.374-3.29 1.052-4.26 2.324-.96 1.26-1.29 2.93-1.24 4.982l2-.052Zm-28.61 5.583c1.74-.529 3.22-1.013 4.47-1.429 1.26-.418 2.27-.76 3.1-1.015.85-.258 1.44-.404 1.86-.451.44-.05.51.029.48.008-.04-.031.04-.017.11.353s.09.917.08 1.729c-.03 1.537-.19 4.016-.19 7.248h2c0-3.268.16-5.49.19-7.214.01-.82 0-1.545-.11-2.133-.11-.587-.35-1.217-.93-1.623-.57-.396-1.25-.424-1.85-.356-.62.07-1.37.265-2.22.526-.86.264-1.91.618-3.15 1.03-1.25.414-2.71.892-4.42 1.413l.58 1.914Zm9.91 6.445c.1 52.499.1 104.997 0 157.496l2 .004c.1-52.501.1-105.003 0-157.504l-2 .004Zm0 157.498c0 .575.06 1.194.1 1.712.04.55.06 1.023.02 1.443-.05.41-.15.714-.32.95-.16.227-.43.465-.95.657l.7 1.876c.83-.308 1.46-.77 1.89-1.377.42-.599.6-1.264.67-1.891.06-.618.03-1.25-.01-1.81-.05-.591-.1-1.085-.1-1.56h-2Zm-1.17 4.772c-3.63 1.45-6.96 3.115-10.58 2.929l-.1 1.998c4.18.214 8.05-1.721 11.42-3.071l-.74-1.856Zm-10.58 2.929c-.24-.012-.26-.078-.27-.083-.04-.063-.11-.232-.13-.6-.02-.354.01-.767.05-1.234.04-.431.1-.948.1-1.384h-2c0 .314-.04.697-.09 1.197-.04.464-.09 1.014-.06 1.535.03.507.14 1.126.5 1.644.41.576 1.04.885 1.8.923l.1-1.998Zm-.25-3.301v-82h-2v82h2Zm-1-83h-.3v2h.3v-2Zm.7 1c0-27.495.1-55.002-.1-82.507l-2 .014c.2 27.495.1 54.988.1 82.493h2Zm-.1-82.463c.05-1.298.24-2.106.58-2.655.32-.506.85-.917 1.9-1.222l-.56-1.92c-1.35.395-2.37 1.034-3.03 2.078-.63 1.001-.84 2.243-.89 3.645l2 .074Zm-26.04 5.528c2.24-.609 3.82-1.06 4.99-1.272 1.23-.222 1.65-.101 1.82.018.15.11.39.44.51 1.658.12 1.163.12 2.803.12 5.131h2c0-2.272.01-4.045-.13-5.338-.13-1.239-.41-2.407-1.34-3.073-.9-.656-2.11-.585-3.34-.364-1.28.232-2.99.719-5.15 1.31l.52 1.93Zm7.44 5.535v77.9h2V89.8h-2Zm0 77.9c0 26.795-.1 53.602.1 80.407l2-.014c-.2-26.795-.1-53.588-.1-80.393h-2Zm.1 80.4c0 2.107-.36 3.367-1.03 4.225-.66.86-1.77 1.484-3.64 2.013l.54 1.924c2.03-.571 3.62-1.347 4.68-2.712 1.06-1.368 1.45-3.157 1.45-5.45h-2Zm-4.68 6.239c-2.37.682-4.07 1.175-5.33 1.398-1.31.232-1.8.1-2.02-.064-.22-.163-.48-.592-.63-1.916-.14-1.273-.14-3.057-.14-5.557h-2c0 2.45 0 4.366.15 5.775.15 1.357.47 2.589 1.43 3.302.95.711 2.22.666 3.56.429 1.39-.245 3.21-.778 5.54-1.445l-.56-1.922Zm-8.12-6.141c-.1-52.1-.2-104.202-.5-156.304l-2 .012c.3 52.098.4 104.196.5 156.296l2-.004Zm-.5-156.278c.05-2.472.46-4.016 1.28-5.104.83-1.085 2.18-1.88 4.5-2.556l-.56-1.92c-2.48.723-4.33 1.679-5.53 3.269-1.2 1.587-1.64 3.642-1.69 6.271l2 .04Zm-183.277 55.626c16.403-5.6 32.698-11.199 49.097-16.698l-.64-1.896c-16.401 5.501-32.706 11.102-49.103 16.702l.646 1.892Zm49.097-16.698c26.87-8.991 54.01-17.704 80.9-26.801l-.64-1.894c-26.91 9.103-53.97 17.79-80.9 26.799l.64 1.896Zm80.9-26.802c1.01-.343 1.76-.539 2.33-.598.56-.06.81.03.93.109.11.074.28.252.42.775.13.531.2 1.293.2 2.368h2c0-1.125-.07-2.088-.27-2.864-.2-.783-.56-1.492-1.24-1.943-.67-.446-1.46-.518-2.25-.434-.8.084-1.72.338-2.76.695l.64 1.892Zm3.88 2.652c-.1 53.901-.1 107.903 0 161.904l2-.004c-.1-53.999-.1-107.997 0-161.896l-2-.004Zm0 161.902c0 1.516-.24 2.473-.71 3.14-.45.653-1.23 1.183-2.67 1.6l.56 1.92c1.66-.483 2.93-1.203 3.75-2.375.81-1.158 1.07-2.601 1.07-4.285h-2Zm-3.39 4.743c-38.7 11.801-77.3 23.601-115.902 35.401l.584 1.912c38.598-11.8 77.198-23.6 115.898-35.399l-.58-1.914Zm-116.037 35.453c-3.524 1.664-7.26 2.846-11.089 3.956-3.807 1.104-7.733 2.143-11.523 3.507l.678 1.882c3.71-1.336 7.534-2.347 11.402-3.468 3.846-1.115 7.71-2.333 11.386-4.069l-.854-1.808Zm-22.632 7.471c-1.196.46-1.843.353-2.158.141-.308-.207-.683-.774-.683-2.208h-2c0 1.666.425 3.099 1.567 3.867 1.135.763 2.588.606 3.992.066l-.718-1.866ZM952.9 314.2v-4h-2v4h2Zm0-4V159.4h-2v150.8h2Zm0-150.8c0-2.547.076-4.471.337-5.962.258-1.479.683-2.444 1.316-3.141.635-.699 1.575-1.233 3.067-1.664 1.502-.435 3.473-.74 6.094-1.039l-.228-1.988c-2.629.301-4.745.621-6.422 1.105-1.685.488-3.014 1.166-3.992 2.242-.979 1.078-1.511 2.451-1.806 4.141-.292 1.677-.366 3.753-.366 6.306h2ZM68.39 424.849c-14.105 4.602-28.112 9.304-42.12 14.207l.66 1.888c13.992-4.897 27.986-9.595 42.08-14.193l-.62-1.902Zm-42.114 14.205c-.924.316-1.613.485-2.128.528-.51.042-.737-.048-.85-.126-.11-.077-.27-.257-.4-.749-.13-.499-.198-1.212-.198-2.207h-2c0 1.055.07 1.967.264 2.712.196.752.548 1.434 1.188 1.882.637.447 1.397.544 2.162.481.76-.064 1.634-.295 2.61-.629l-.648-1.892Zm-3.576-2.552c.1-54.301.1-108.603 0-162.904l-2 .004c.1 54.299.1 108.597 0 162.896l2 .004Zm0-162.902c0-1.709.29-2.714.835-3.405.553-.701 1.503-1.251 3.233-1.731l-.536-1.928c-1.87.52-3.32 1.22-4.267 2.419-.954 1.209-1.265 2.754-1.265 4.645h2Zm4.084-5.141c14.217-4.205 28.332-8.81 42.242-13.614l-.652-1.89c-13.89 4.796-27.975 9.391-42.158 13.586l.568 1.918Zm42.24-13.613c1.003-.342 1.715-.516 2.221-.557.5-.041.66.058.712.1.067.054.203.216.304.731.1.509.139 1.214.139 2.18h2c0-.984-.036-1.854-.177-2.567-.139-.707-.41-1.414-1.005-1.897-.61-.495-1.37-.603-2.135-.541-.76.062-1.66.301-2.706.659l.646 1.892Zm3.376 2.45c-.1 27.102-.1 54.304-.1 81.404h2c0-27.1 0-54.298.1-81.396l-2-.008Zm-.1 81.404c0 26.595-.1 53.303.1 80.007l2-.014c-.2-26.695-.1-53.388-.1-79.993h-2Zm.1 80.026c.049 1.847-.158 3.081-.704 3.979-.527.865-1.472 1.58-3.29 2.139l.588 1.912c2.082-.641 3.537-1.576 4.41-3.011.854-1.402 1.047-3.118.996-5.071l-2 .052Zm42.473-10.23c-3.533 1.668-7.257 2.941-11.074 3.724l.402 1.96c3.983-.817 7.859-2.144 11.526-3.876l-.854-1.808Zm-11.037 3.718c-.203.033-.122-.029-.037.067.014.016-.055-.065-.093-.404-.034-.313-.029-.692-.014-1.134.013-.406.035-.899.005-1.314l-1.994.142c.02.285.005.642-.01 1.108-.014.429-.027.944.026 1.419.049.448.174 1.049.585 1.511.483.544 1.163.694 1.86.577l-.328-1.972Zm-.136-2.725c-.1-8.816-.3-17.596-.3-26.489h-2c0 8.907.2 17.727.3 26.511l2-.022ZM103.4 383c0-44.297.1-88.602-.2-132.807l-2 .014c.3 44.195.2 88.49.2 132.793h2Zm-.2-132.8c0-2.787.398-4.607 1.295-5.889.88-1.26 2.365-2.171 4.956-2.843l-.502-1.936c-2.809.728-4.824 1.817-6.094 3.632-1.253 1.793-1.655 4.123-1.655 7.036h2Zm6.255-8.733c1.933-.509 3.29-.885 4.295-1.06 1.061-.185 1.368-.067 1.461.001.079.058.283.291.391 1.347.103 1.001.098 2.416.098 4.445h2c0-1.971.008-3.519-.108-4.649-.111-1.075-.357-2.142-1.203-2.759-.832-.607-1.925-.539-2.982-.355-1.114.194-2.595.605-4.461 1.096l.509 1.934Zm6.245 4.733v77.4h2v-77.4h-2Zm0 77.4v79.9h2v-79.9h-2Zm.001 79.948c.027.573.117 1.194.181 1.726.069.561.115 1.058.094 1.505-.02.441-.105.773-.253 1.028-.139.238-.373.479-.826.678l.806 1.83c.797-.351 1.375-.861 1.749-1.503.364-.627.492-1.307.522-1.941.029-.628-.037-1.269-.106-1.839-.073-.599-.146-1.103-.169-1.58l-1.998.096Zm26.338-3.713c-2.107.57-3.83 1.163-4.932 1.483-.587.17-1.016.27-1.339.305-.327.036-.44-.008-.462-.02-.008-.003-.018-.009-.035-.029a.701.701 0 0 1-.101-.179c-.093-.221-.18-.586-.243-1.179-.126-1.186-.127-2.963-.127-5.616h-2c0 2.597-.001 4.508.138 5.827.07.661.183 1.254.389 1.743.215.512.556.961 1.093 1.227.508.251 1.059.269 1.563.215.506-.055 1.074-.197 1.682-.374 1.289-.374 2.753-.893 4.896-1.473l-.522-1.93Zm-7.239-5.231c.1-25.502 0-50.91 0-76.404h-2c0 25.506.1 50.898 0 76.396l2 .008Zm-1-77.404h-.3v2h.3v-2Zm.7 1c0-26.495.1-52.903-.1-79.408l-2 .016c.2 26.494.1 52.887.1 79.392h2Zm-.1-79.421c-.048-2.309.321-3.711 1.057-4.671.738-.965 1.981-1.664 4.106-2.243l-.526-1.93c-2.275.621-4.032 1.472-5.169 2.957-1.139 1.49-1.52 3.438-1.468 5.929l2-.042Zm5.169-6.916c2.357-.659 4.033-1.147 5.274-1.377 1.3-.24 1.763-.118 1.957.023.184.134.441.515.576 1.816.129 1.244.124 2.997.124 5.475h2c0-2.422.008-4.307-.135-5.681-.137-1.318-.437-2.537-1.39-3.229-.943-.683-2.199-.611-3.496-.37-1.356.251-3.155.776-5.448 1.417l.538 1.926Zm7.931 5.937c0 51.397-.1 102.901.1 154.304l2-.008c-.2-51.397-.1-102.893-.1-154.296h-2Zm.1 154.3c0 2.489-.349 4.056-1.129 5.161-.77 1.09-2.086 1.903-4.446 2.577l.55 1.924c2.54-.726 4.374-1.713 5.529-3.348 1.145-1.62 1.496-3.703 1.496-6.314h-2Zm25.442-2.887c-.763.122-1.463.406-2.08.693-.675.313-1.153.576-1.738.822-1.051.443-1.914.583-2.928.004l-.992 1.736c1.786 1.021 3.373.661 4.697.104.603-.254 1.293-.616 1.803-.853.567-.263 1.067-.454 1.554-.532l-.316-1.974ZM165.8 391.6h-1v.1h2v-.1h-1Zm.682-.631c-.498-.465-.635-.949-.645-1.56-.005-.331.029-.68.072-1.093.041-.393.091-.854.091-1.316h-2c0 .338-.037.69-.081 1.109-.041.399-.089.863-.081 1.332.015.989.278 2.055 1.28 2.99l1.364-1.462Zm-.482-3.971-.15-79.45-.15-79.45-2 .004.15 79.45.15 79.45 2-.004Zm-.3-158.898c0-.385-.015-.777-.03-1.151-.015-.38-.03-.74-.033-1.092-.006-.715.041-1.294.189-1.747.136-.418.349-.703.706-.9.391-.215 1.06-.381 2.208-.312l.12-1.996c-1.352-.081-2.445.09-3.292.556-.881.485-1.38 1.225-1.644 2.032-.252.772-.293 1.618-.286 2.384.003.389.019.784.034 1.154.015.377.028.732.028 1.072h2Zm3.401-5.246c2.799-.883 4.817-1.518 6.312-1.815 1.548-.309 2.192-.175 2.51.056.316.231.638.8.81 2.363.166 1.508.167 3.617.167 6.542h2c0-2.875.002-5.116-.179-6.761-.175-1.59-.548-2.977-1.619-3.759-1.07-.781-2.506-.716-4.08-.403-1.628.324-3.772 1.002-6.523 1.869l.602 1.908ZM178.9 230c0 50.397-.1 100.802.2 151.106l2-.012c-.3-50.296-.2-100.691-.2-151.094h-2Zm.2 151.082c-.049 2.681-.49 4.506-1.385 5.745-.867 1.199-2.28 2.01-4.67 2.385l.31 1.976c2.71-.425 4.697-1.414 5.981-3.19 1.254-1.736 1.713-4.061 1.764-6.88l-2-.036ZM731.994 42.056c12.68-3.894 25.406-7.602 38.015-11.705l-.618-1.902c-12.591 4.097-25.265 7.79-37.985 11.695l.588 1.912Zm38.022-11.707c.939-.313 1.636-.462 2.15-.483.503-.02.74.084.867.184.133.104.299.322.419.831.121.514.172 1.227.148 2.194l2 .05c.025-1.033-.023-1.945-.202-2.703-.18-.763-.514-1.463-1.131-1.947-.623-.487-1.386-.64-2.183-.607-.786.032-1.689.246-2.7.583l.632 1.898Zm3.584 2.736c-.2 13.113-.1 26.325 0 39.423l2-.016c-.1-13.102-.2-26.29 0-39.377l-2-.03Zm0 39.415c0 .866-.032 1.526-.124 2.023-.093.504-.224.704-.311.786-.059.055-.203.158-.641.143-.459-.015-1.128-.158-2.094-.496l-.66 1.888c1.034.362 1.928.582 2.687.607.781.026 1.512-.153 2.078-.685.538-.506.782-1.2.908-1.88.127-.687.157-1.502.157-2.386h-2Zm-3.186 2.45c-22.404-7.4-44.921-14.406-67.308-21.602l-.612 1.904c22.413 7.204 44.896 14.199 67.292 21.598l.628-1.9Zm-67.332-21.61c-1.938-.57-3.289-.581-4.332-2.266l-1.7 1.052c1.557 2.515 4.006 2.703 5.468 3.133l.564-1.918Zm-4.881-.786c11.403-3.601 22.582-6.995 33.797-10.5l-.596-1.909c-11.185 3.496-22.406 6.902-33.803 10.501l.602 1.908ZM405.43 136.177c29.499-23.899 58.998-47.699 88.598-71.599l-1.256-1.556c-29.6 23.9-59.101 47.7-88.601 71.601l1.259 1.554Zm88.597-71.598c14.799-11.9 29.603-23.802 44.208-35.806l-1.27-1.546c-14.595 11.997-29.391 23.893-44.192 35.794l1.254 1.558Zm44.216-35.813c1.16-.974 2.121-1.44 3.086-1.59.98-.154 2.083-.002 3.564.476l.614-1.904c-1.619-.522-3.066-.77-4.486-.549-1.435.225-2.724.91-4.064 2.035l1.286 1.532Zm6.651-1.114c44.8 14.4 89.602 28.8 134.404 43.001l.604-1.906c-44.798-14.2-89.596-28.599-134.396-42.999l-.612 1.904ZM679.6 69.7l-.001 1h-.031a.92.92 0 0 1-.117-.012.916.916 0 0 1-.751-.888h2a1.099 1.099 0 0 0-.603-.982 1.115 1.115 0 0 0-.463-.117h-.018l-.008-.001h-.007l-.001 1Zm.807-.607-.1-.1-1.414 1.414.1.1 1.414-1.414Zm-.931 1.6c3.278.409 6.136.699 8.461 2.756l1.326-1.498c-2.875-2.543-6.417-2.853-9.539-3.243l-.248 1.984Zm8.82 2.96c27.602 8.8 55.103 17.5 82.703 26.2l.602-1.907c-27.6-8.7-55.099-17.4-82.697-26.199l-.608 1.906ZM771 99.854c1.493.469 2.051 1.165 2.319 1.928.316.897.281 1.979.281 3.418h2c0-1.261.065-2.779-.394-4.082-.507-1.438-1.599-2.541-3.606-3.172l-.6 1.908Zm2.6 5.346v77.5h2v-77.5h-2Zm0 77.5v77h2v-77h-2Zm0 77c0 1.396-.008 2.36-.088 3.035-.087.727-.228.785-.182.752.046-.033-.052.081-.76-.069-.657-.138-1.556-.434-2.854-.867l-.632 1.898c1.252.417 2.278.759 3.074.926.745.157 1.628.246 2.337-.262.709-.508.911-1.375 1.003-2.141.097-.819.102-1.918.102-3.272h-2Zm-3.878 2.853c-51.501-17.5-103.002-34.9-154.401-52.3l-.642 1.894c51.401 17.4 102.9 34.8 154.399 52.3l.644-1.894Zm-154.401-52.3c-50.5-17.1-101.098-34.3-151.597-51.599l-.648 1.892c50.501 17.301 101.103 34.501 151.603 51.601l.642-1.894Zm-151.6-51.6c-9.599-3.25-19.198-6.524-28.798-9.799-9.6-3.275-19.201-6.551-28.802-9.801l-.642 1.894c9.599 3.25 19.198 6.524 28.798 9.799 9.6 3.275 19.201 6.551 28.802 9.801l.642-1.894Zm-57.605-19.602c-.386-.128-.796-.196-1.111-.249-.348-.059-.6-.104-.814-.176-.201-.067-.294-.135-.345-.192-.043-.048-.12-.159-.152-.444l-1.988.22c.069.615.278 1.141.648 1.556.362.405.806.625 1.205.758.386.128.796.196 1.111.249.348.059.6.104.814.176l.632-1.898Zm-2.418-1.022c-.023-.314.084-.542.374-.824.156-.152.35-.301.588-.471.216-.155.508-.354.754-.545l-1.228-1.578c-.204.159-.412.297-.69.496a7.063 7.063 0 0 0-.817.663c-.56.543-1.054 1.314-.976 2.401l1.995-.142Zm-19.819 179.724-133.2 45.2.642 1.894 133.2-45.2-.642-1.894Zm-133.195 45.198c-5.999 2-12.008 4.003-17.919 6.107l.67 1.884c5.889-2.096 11.88-4.093 17.881-6.093l-.632-1.898Zm-17.911 6.104c-1.274.441-1.795.325-1.977.203-.146-.098-.445-.473-.397-1.822l-1.998-.072c-.052 1.451.199 2.826 1.278 3.553 1.043.703 2.422.487 3.748.028l-.654-1.89ZM230.4 367.4v-3h-2v3h2Zm0-3c0-52.097.1-104.301-.1-156.404l-2 .008c.2 52.097.1 104.293.1 156.396h2Zm-.1-156.4c0-2.296.409-3.687 1.165-4.662.766-.988 2.011-1.709 4.051-2.389l-.632-1.898c-2.16.72-3.865 1.599-4.999 3.061-1.144 1.475-1.585 3.384-1.585 5.888h2Zm5.205-7.048c46.6-14.9 93.102-29.8 139.604-44.901l-.618-1.902c-46.498 15.099-92.996 29.999-139.596 44.898l.61 1.905Zm139.634-44.911a10.318 10.318 0 0 1 7.022 0l.678-1.882a12.317 12.317 0 0 0-8.378 0l.678 1.882Zm7.039.006c20 6.8 39.975 13.6 59.95 20.4 19.975 6.8 39.95 13.6 59.95 20.4l.644-1.894c-20-6.8-39.975-13.6-59.95-20.4-19.975-6.8-39.95-13.6-59.95-20.4l-.644 1.894Zm119.901 40.8c19.5 6.6 39.025 13.225 58.55 19.85 19.525 6.625 39.05 13.25 58.55 19.85l.642-1.894c-19.5-6.6-39.025-13.225-58.55-19.85-19.525-6.625-39.05-13.25-58.55-19.85l-.642 1.894Zm117.002 39.661a66.67 66.67 0 0 1 3.745 1.872l.948-1.76a67.896 67.896 0 0 0-3.855-1.928l-.838 1.816Zm3.896.045a12398.048 12398.048 0 0 0-37.902 13.001l.651 1.892c12.2-4.201 24.398-8.4 37.896-12.999l-.645-1.894Zm-37.899 13c-37.599 12.8-75.297 25.499-112.898 38.2l.64 1.894c37.599-12.699 75.301-25.4 112.902-38.2l-.644-1.894Zm-112.9 38.2c-29.4 10-58.8 20-88.299 30l.642 1.894c29.501-10 58.901-20 88.301-30l-.644-1.894ZM773.6 441.5c0 .818-.026 1.472-.113 1.987-.088.522-.22.784-.34.916-.089.098-.249.214-.66.232-.443.021-1.107-.078-2.085-.388l-.604 1.906c1.072.34 1.996.516 2.781.48.817-.037 1.526-.309 2.049-.886.492-.543.716-1.243.832-1.928.116-.691.14-1.487.14-2.319h-2Zm-3.195 2.748c-24.003-7.701-48.109-15.203-72.204-22.802l-.602 1.908c24.105 7.601 48.199 15.099 72.195 22.798l.611-1.904Zm-72.058-22.742c.163.081.234.19.218.168a3.834 3.834 0 0 1-.133-.213 15.39 15.39 0 0 0-.823-1.249l-1.618 1.176c.375.515.583.862.727 1.102.065.109.147.248.23.361.084.115.242.312.505.443l.894-1.788Zm-1.244.247c8.503-2.701 16.506-5.302 24.506-7.902l-.618-1.902c-8 2.6-15.997 5.199-24.494 7.898l.606 1.906Zm24.497-7.899a8618.325 8618.325 0 0 1 47.595-14.798l-.589-1.912A8676.015 8676.015 0 0 0 721 411.946l.6 1.908Zm47.595-14.799c1.392-.43 2.374-.722 3.094-.852.764-.139.947-.036.962-.025.003.001.009.006.021.021a.482.482 0 0 1 .06.107c.056.125.114.331.16.662.094.675.108 1.638.108 3.032h2c0-1.356-.011-2.468-.127-3.306-.111-.805-.355-1.667-1.099-2.172-.722-.489-1.621-.436-2.442-.287-.863.157-1.969.49-3.327.91l.59 1.91ZM773.6 402v39.5h2V402h-2Zm0-70.9c0 12.69-.1 25.305.1 38.016l2-.032c-.2-12.689-.1-25.274-.1-37.984h-2Zm.1 38c0 1.531-.221 2.461-.664 3.112-.434.638-1.192 1.168-2.643 1.636l.614 1.904c1.649-.532 2.891-1.252 3.682-2.414.782-1.149 1.011-2.569 1.011-4.238h-2Zm-3.296 4.745c-59.101 18.3-118.102 36.7-177.102 55.1l.596 1.91c59-18.4 117.999-36.8 177.098-55.1l-.592-1.91Zm-177.1 55.1a6059.488 6059.488 0 0 0-56.11 17.703l.612 1.904a6036.123 6036.123 0 0 1 56.09-17.697l-.592-1.91Zm-56.183 17.729c-1.806.739-3.883.25-5.214-1.081l-1.414 1.414c1.869 1.869 4.792 2.58 7.386 1.519l-.758-1.852Zm-5.278-1.14c-25.699-21.599-51.5-43.3-77.301-64.901l-1.284 1.534c25.799 21.599 51.598 43.298 77.299 64.899l1.286-1.532Zm-77.301-64.9c-16.696-13.997-33.402-28.103-50.207-41.907l-1.27 1.546c16.795 13.796 33.489 27.89 50.193 41.893l1.284-1.532Zm-50.206-41.906c-.833-.686-1.338-1.194-1.608-1.572-.275-.385-.182-.453-.209-.366-.01.036.016-.099.474-.355.429-.24 1.061-.491 1.931-.789l-.648-1.892c-.88.302-1.66.601-2.259.936-.57.319-1.188.784-1.411 1.52-.239.787.073 1.519.495 2.109.426.597 1.096 1.239 1.963 1.953l1.272-1.544Zm.585-3.081c42.497-14.399 85.001-28.7 127.502-43.201l-.646-1.892c-42.499 14.499-84.995 28.798-127.498 43.199l.642 1.894Zm127.5-43.2c39.493-13.398 79.104-26.601 118.412-40.504l-.666-1.886c-39.292 13.897-78.882 27.094-118.388 40.496l.642 1.894Zm118.414-40.505c7.222-2.566 12.786-.414 19.344 1.805l.642-1.894c-6.442-2.181-12.678-4.63-20.656-1.795l.67 1.884Zm19.345 1.805c33.094 11.198 66.101 22.501 99.202 33.601l.636-1.896c-33.099-11.1-66.092-22.398-99.198-33.599l-.64 1.894Zm99.211 33.604c1.751.568 2.795 1.251 3.419 2.129.624.877.938 2.102.89 3.995l2 .05c.052-2.107-.284-3.832-1.26-5.205-.976-1.372-2.482-2.239-4.431-2.871l-.618 1.902Zm4.309 6.125c-.3 12.616-.1 25.145-.1 37.624h2c0-12.521-.2-24.992.1-37.576l-2-.048Zm26.431 139.881c-.314.282-.607.638-.843.919-.258.308-.472.558-.69.752-.215.191-.368.266-.475.289-.079.018-.213.027-.455-.101l-.936 1.768c.608.321 1.224.419 1.823.286.571-.126 1.025-.439 1.372-.748.345-.306.649-.669.894-.961.267-.318.462-.55.648-.718l-1.338-1.486Zm-2.463 1.859c-.254-.134-.342-.262-.385-.356-.053-.115-.086-.288-.072-.572.015-.292.073-.607.144-1.009.065-.369.145-.828.145-1.279h-2c0 .249-.045.54-.114.93-.064.357-.15.812-.172 1.257-.023.454.012.987.25 1.506.248.541.672.975 1.268 1.291l.936-1.768ZM797.5 432V237.1h-2V432h2Zm0-194.9V43h-2v194.1h2Zm0-194.1v-2.5h-2V43h2Zm0-2.5c0-.252-.032-.556-.047-.75a3.152 3.152 0 0 1-.008-.56.556.556 0 0 1 .066-.245c.012-.02.045-.069.174-.122l-.77-1.846a2.321 2.321 0 0 0-1.088.888 2.53 2.53 0 0 0-.372 1.12 5.25 5.25 0 0 0 .004.919c.023.29.041.447.041.596h2Zm.185-1.677c.143-.06.211-.051.237-.046a.532.532 0 0 1 .22.114c.121.09.249.214.421.392.153.158.365.387.586.576l1.302-1.518c-.129-.11-.254-.245-.449-.446a5.471 5.471 0 0 0-.669-.61 2.514 2.514 0 0 0-1.059-.477 2.396 2.396 0 0 0-1.359.169l.77 1.846Zm1.484 1.052c7.009 5.709 13.997 11.298 20.894 16.996l1.274-1.542c-6.903-5.702-13.915-11.313-20.906-17.004l-1.262 1.55Zm20.897 16.999c35.401 29 70.901 58.001 106.401 87l1.266-1.548c-35.5-29.001-71-58-106.399-87l-1.268 1.548Zm106.429 87.022c2.253 1.713 3.585 4.4 3.407 7.242l1.996.124c.222-3.558-1.446-6.871-4.193-8.958l-1.21 1.592Zm3.405 7.3c-.05 13.002-.05 26.004-.05 39.004 0 13 0 25.998-.05 38.996l2 .008c.05-13.002.05-26.004.05-39.004 0-13 0-25.998.05-38.996l-2-.008Zm-.1 78.001c-.1 30.195-.3 60.301-.3 90.503h2c0-30.198.2-60.292.3-90.497l-2-.006Zm-.3 90.503c0 2.853-.411 5.23-1.363 7.354-.95 2.12-2.468 4.054-4.777 5.978l1.28 1.536c2.491-2.076 4.223-4.242 5.323-6.697 1.098-2.451 1.537-5.124 1.537-8.171h-2Zm-6.127 13.321c-41.304 33.203-82.209 66.807-123.206 100.305l1.266 1.548c41.002-33.502 81.898-67.098 123.194-100.295l-1.254-1.558Z" mask="url(#a)"/>
</svg>
